<svg version="1.1" xmlns="http://www.w3.org/2000/svg" viewBox="0 0 1582.0294737815857 1251.7653610602" width="1582.0294737815857" height="1251.7653610602">
  <!-- svg-source:excalidraw -->
  
  <defs>
    <style class="style-fonts">
      @font-face {
        font-family: "Virgil";
        src: url("https://excalidraw.com/Virgil.woff2");
      }
      @font-face {
        font-family: "Cascadia";
        src: url("https://excalidraw.com/Cascadia.woff2");
      }
      @font-face {
        font-family: "Assistant";
        src: url("https://excalidraw.com/Assistant-Regular.woff2");
      }
    </style>
    <clipPath id="oDAa6coCiXWXiScyddGOv">
            <rect transform="translate(991.0294737815857 547.9431936740875) rotate(0 290.5 203.5)" width="581" height="407">
          </rect>
        </clipPath>
  </defs>
  <g stroke-linecap="round"><g transform="translate(908.8790710932453 202.296888589859) rotate(0 72.8680110065668 328.08953107233424)"><path d="M0.48 1.09 C24.52 110.42, 120.86 545.92, 144.89 655.24" stroke="#bbb" stroke-width="1.5" fill="none" stroke-dasharray="1.5 7"></path></g><g transform="translate(908.8790710932453 202.296888589859) rotate(0 72.8680110065668 328.08953107233424)"><path d="M131.48 634.14 C137.91 640.15, 139.28 647.22, 144.89 655.24" stroke="#bbb" stroke-width="1.5" fill="none" stroke-dasharray="1.5 5"></path></g><g transform="translate(908.8790710932453 202.296888589859) rotate(0 72.8680110065668 328.08953107233424)"><path d="M148.18 630.46 C148.68 637.84, 144.14 646.21, 144.89 655.24" stroke="#bbb" stroke-width="1.5" fill="none" stroke-dasharray="1.5 5"></path></g></g><mask></mask><g stroke-linecap="round" transform="translate(148 96.15444617784715) rotate(0 212 22.96099843993761)"><path d="M11.48 0 C142.3 2.61, 273.98 2.59, 412.52 0 C419.23 -2.24, 423.03 5.17, 424 11.48 C423.77 15.27, 423.28 20.99, 424 34.44 C427.1 42.4, 417.5 48.95, 412.52 45.92 C272.06 42.47, 128.83 43.44, 11.48 45.92 C5.76 43.68, -0.77 42.92, 0 34.44 C-0.79 29.11, -2.73 21.02, 0 11.48 C2.69 5.29, 4.92 1.92, 11.48 0" stroke="none" stroke-width="0" fill="#b2f2bb"></path><path d="M11.48 0 C138.32 2.73, 267.78 1.11, 412.52 0 M11.48 0 C98.59 1.43, 187.22 2.34, 412.52 0 M412.52 0 C420.05 -0.51, 425.08 3.41, 424 11.48 M412.52 0 C421.82 1.23, 423.07 3.18, 424 11.48 M424 11.48 C422.4 21.25, 423.63 25.32, 424 34.44 M424 11.48 C424.6 18.48, 424.35 24.11, 424 34.44 M424 34.44 C422.24 40.87, 418.71 46.9, 412.52 45.92 M424 34.44 C422.75 41.45, 420.11 45.71, 412.52 45.92 M412.52 45.92 C274.67 48.29, 135.08 48.66, 11.48 45.92 M412.52 45.92 C270.32 47.91, 128.21 48.27, 11.48 45.92 M11.48 45.92 C2.39 47.49, 1.32 41.16, 0 34.44 M11.48 45.92 C5.29 45.53, -0.59 42.09, 0 34.44 M0 34.44 C-1.6 26.52, 1.85 21.65, 0 11.48 M0 34.44 C-0.6 27.46, 0.45 19.36, 0 11.48 M0 11.48 C0.86 5.4, 5.59 1.97, 11.48 0 M0 11.48 C-0.89 2.91, 2.67 -0.34, 11.48 0" stroke="#1e1e1e" stroke-width="2" fill="none"></path></g><g transform="translate(183.76022338867188 106.61544461778476) rotate(0 176.23977661132812 12.5)"><text x="176.23977661132812" y="17.52" font-family="Virgil, Segoe UI Emoji" font-size="20px" fill="#1e1e1e" text-anchor="middle" style="white-space: pre;" direction="ltr" dominant-baseline="alphabetic">paketo-buildpacks/jammy-base-stack</text></g><g stroke-linecap="round" transform="translate(10 10) rotate(0 211.99999999999994 22.96099843993761)"><path d="M11.48 0 C94.57 0.42, 174.43 -0.37, 412.52 0 C420.86 -2.9, 424.27 7.11, 424 11.48 C420.82 12.83, 421.16 19.12, 424 34.44 C422.19 42.3, 417.58 42.74, 412.52 45.92 C298.03 43.92, 179.34 45.88, 11.48 45.92 C2.98 48.64, -2.4 44.03, 0 34.44 C2.6 29.38, -2.13 24.7, 0 11.48 C3.36 0.59, 7.08 -0.63, 11.48 0" stroke="none" stroke-width="0" fill="#b2f2bb"></path><path d="M11.48 0 C100.78 -1.62, 192.73 -1.72, 412.52 0 M11.48 0 C142.55 -0.62, 275.01 -0.65, 412.52 0 M412.52 0 C419.71 1.65, 425.22 5.45, 424 11.48 M412.52 0 C421.45 0.8, 423.6 1.54, 424 11.48 M424 11.48 C423.64 18.92, 423.65 23.2, 424 34.44 M424 11.48 C423.7 16.02, 423.04 21.04, 424 34.44 M424 34.44 C423.13 41.59, 421.36 44.94, 412.52 45.92 M424 34.44 C424.21 44.36, 421.14 44.45, 412.52 45.92 M412.52 45.92 C324.49 44.71, 237.04 44.62, 11.48 45.92 M412.52 45.92 C329.62 46.92, 246.6 47.06, 11.48 45.92 M11.48 45.92 C2.02 46.54, 0.5 43.55, 0 34.44 M11.48 45.92 C1.54 45.57, -0.19 41.84, 0 34.44 M0 34.44 C0.95 26.06, -1.03 20.1, 0 11.48 M0 34.44 C0.32 26.19, -0.52 17.08, 0 11.48 M0 11.48 C-1.33 3.66, 3.71 -1.3, 11.48 0 M0 11.48 C-2.19 3.32, 5.02 1.97, 11.48 0" stroke="#1e1e1e" stroke-width="2" fill="none"></path></g><g transform="translate(42.360260009765625 20.46099843993761) rotate(0 179.63973999023438 12.5)"><text x="179.63973999023438" y="17.52" font-family="Virgil, Segoe UI Emoji" font-size="20px" fill="#1e1e1e" text-anchor="middle" style="white-space: pre;" direction="ltr" dominant-baseline="alphabetic">paketo-buildpacks/builder-jammy-base</text></g><g stroke-linecap="round" transform="translate(602 64.95475819032765) rotate(0 293 25.570202808112327)"><path d="M242.67 0.61 C265.51 0, 293.76 0.25, 319.19 0.41 C344.62 0.58, 371.28 0.91, 395.23 1.61 C419.18 2.3, 442.46 3.47, 462.87 4.59 C483.28 5.71, 501.69 6.75, 517.69 8.33 C533.69 9.91, 548.09 11.79, 558.87 14.06 C569.65 16.34, 578.02 19.51, 582.36 21.97 C586.69 24.43, 587.12 26.7, 584.86 28.83 C582.6 30.96, 577.58 32.75, 568.8 34.74 C560.03 36.73, 546.77 38.94, 532.2 40.77 C517.63 42.6, 500.97 44.22, 481.4 45.69 C461.83 47.17, 437.79 48.78, 414.78 49.62 C391.78 50.45, 368.1 50.51, 343.35 50.71 C318.59 50.91, 291.59 50.91, 266.26 50.83 C240.93 50.75, 214.96 50.84, 191.37 50.24 C167.77 49.63, 145.42 48.46, 124.67 47.21 C103.91 45.95, 83.15 44.57, 66.83 42.71 C50.5 40.85, 37.18 38.25, 26.7 36.05 C16.21 33.84, 8.27 31.5, 3.9 29.46 C-0.47 27.42, -1.81 25.86, 0.49 23.81 C2.78 21.76, 8.81 19.4, 17.67 17.16 C26.53 14.93, 38.84 12.29, 53.65 10.42 C68.47 8.56, 87.09 7.16, 106.56 5.97 C126.02 4.79, 146.02 4.38, 170.43 3.29 C194.84 2.2, 237.08 0, 253.01 -0.56 C268.94 -1.11, 265.36 -0.57, 266.02 -0.04 M310.02 -0.91 C334.38 -0.92, 360.61 1.44, 384.44 2.06 C408.26 2.68, 431.85 1.75, 452.95 2.82 C474.05 3.89, 494.27 6.49, 511.02 8.48 C527.78 10.47, 541.94 12.97, 553.48 14.77 C565.02 16.58, 574.9 17.21, 580.25 19.33 C585.59 21.44, 586.84 25.27, 585.55 27.45 C584.25 29.64, 580.24 30.46, 572.5 32.45 C564.76 34.45, 553.42 37.24, 539.13 39.41 C524.85 41.58, 505.98 43.92, 486.79 45.47 C467.6 47.01, 446.18 48.04, 423.98 48.65 C401.79 49.27, 378.16 48.58, 353.62 49.15 C329.07 49.72, 302.22 51.81, 276.69 52.09 C251.17 52.36, 224.4 51.54, 200.46 50.8 C176.53 50.05, 154.2 48.89, 133.06 47.61 C111.92 46.32, 90.64 45.05, 73.62 43.09 C56.6 41.12, 42.43 38.06, 30.96 35.81 C19.49 33.56, 9.7 31.52, 4.78 29.59 C-0.13 27.65, -0.31 26.36, 1.47 24.21 C3.25 22.06, 7.67 18.56, 15.45 16.69 C23.22 14.82, 34.29 14.89, 48.14 12.99 C61.98 11.09, 79.67 7.17, 98.52 5.27 C117.38 3.38, 138.95 2.45, 161.27 1.61 C183.6 0.78, 207.53 0.3, 232.46 0.27 C257.39 0.23, 297.89 1.18, 310.86 1.4 C323.82 1.62, 310.81 1.55, 310.24 1.61" stroke="none" stroke-width="0" fill="#b2f2bb"></path><path d="M207.18 0.93 C228.82 -0.23, 257.1 -0.04, 282.35 -0.1 C307.61 -0.16, 334 0.09, 358.71 0.56 C383.42 1.03, 408.1 1.52, 430.61 2.7 C453.13 3.88, 475.3 6.11, 493.79 7.63 C512.27 9.16, 528.19 10.18, 541.52 11.86 C554.85 13.55, 566.49 15.53, 573.78 17.75 C581.07 19.98, 584.5 23.1, 585.28 25.2 C586.06 27.3, 584.11 28.34, 578.48 30.35 C572.86 32.35, 563.43 35.21, 551.5 37.23 C539.57 39.25, 524.25 40.85, 506.9 42.49 C489.55 44.13, 468.79 45.66, 447.41 47.05 C426.02 48.44, 402.76 50.28, 378.59 50.82 C354.41 51.37, 327.53 50.23, 302.37 50.33 C277.2 50.43, 252.07 51.66, 227.58 51.43 C203.1 51.19, 178.04 50.29, 155.47 48.93 C132.89 47.58, 110.7 45.08, 92.13 43.3 C73.57 41.52, 57.32 39.9, 44.1 38.26 C30.88 36.61, 20.12 35.47, 12.83 33.42 C5.54 31.37, 1.17 28.33, 0.36 25.97 C-0.44 23.61, 2.37 21.18, 7.99 19.25 C13.61 17.33, 22.26 16.12, 34.08 14.4 C45.89 12.69, 61.47 10.62, 78.89 8.99 C96.32 7.36, 111.78 5.96, 138.62 4.61 C165.46 3.26, 217.85 1.49, 239.93 0.89 C262.01 0.3, 270.38 0.65, 271.13 1.03 M372.03 1.25 C396.65 1.4, 422.47 3.22, 444.59 4.12 C466.72 5.02, 487.54 5.14, 504.79 6.65 C522.03 8.15, 536.05 10.97, 548.07 13.13 C560.09 15.29, 570.68 17.28, 576.91 19.61 C583.14 21.94, 585.66 24.98, 585.44 27.13 C585.23 29.29, 582.41 30.6, 575.62 32.55 C568.84 34.5, 557.62 37.11, 544.74 38.82 C531.85 40.52, 516.69 41.17, 498.32 42.79 C479.95 44.4, 456.6 47.47, 434.53 48.51 C412.46 49.55, 390.22 48.5, 365.88 49.02 C341.53 49.54, 314 51.34, 288.45 51.61 C262.9 51.88, 236.66 51.44, 212.57 50.63 C188.48 49.81, 165.31 47.89, 143.89 46.72 C122.48 45.56, 102.07 45.18, 84.08 43.63 C66.08 42.08, 48.26 39.48, 35.92 37.41 C23.59 35.34, 16.02 33.36, 10.08 31.2 C4.15 29.03, 0.11 26.53, 0.33 24.43 C0.55 22.34, 4.72 20.6, 11.42 18.62 C18.12 16.65, 27.39 14.32, 40.53 12.56 C53.68 10.79, 71.98 9.77, 90.29 8.04 C108.61 6.3, 128.32 3.16, 150.42 2.14 C172.53 1.12, 198.35 2.49, 222.92 1.92 C247.49 1.35, 272.89 -1.11, 297.84 -1.29 C322.8 -1.48, 360.42 0.15, 372.63 0.81 C384.84 1.47, 372.25 2.29, 371.1 2.66" stroke="#1e1e1e" stroke-width="2" fill="none"></path></g><g transform="translate(729.0579169697635 77.94409719650844) rotate(0 165.75979614257812 12.5)"><text x="165.75979614257812" y="17.52" font-family="Virgil, Segoe UI Emoji" font-size="20px" fill="#1e1e1e" text-anchor="middle" style="white-space: pre;" direction="ltr" dominant-baseline="alphabetic">paketobuildpacks/build-jammy-base</text></g><g stroke-linecap="round" transform="translate(604 141.35959438377535) rotate(0 293 25.570202808112327)"><path d="M291.91 -0.69 C316.15 -1.13, 344.44 0.15, 368.79 0.9 C393.13 1.64, 416.12 2.78, 437.97 3.78 C459.82 4.77, 481.93 5.34, 499.9 6.86 C517.86 8.38, 533 10.98, 545.78 12.9 C558.56 14.81, 569.73 16.12, 576.57 18.33 C583.41 20.55, 586.99 23.93, 586.79 26.2 C586.59 28.47, 581.95 29.92, 575.37 31.95 C568.79 33.97, 559.81 36.45, 547.31 38.36 C534.8 40.27, 518.15 41.95, 500.32 43.41 C482.49 44.88, 462.06 46.12, 440.34 47.14 C418.61 48.16, 394.38 48.82, 369.96 49.51 C345.54 50.2, 319 51.22, 293.82 51.28 C268.65 51.34, 243.24 50.39, 218.93 49.87 C194.61 49.36, 170.18 49.09, 147.95 48.19 C125.71 47.3, 103.58 45.99, 85.53 44.49 C67.48 43, 52.24 41.16, 39.63 39.2 C27.02 37.24, 16.64 34.87, 9.87 32.72 C3.1 30.57, -0.92 28.45, -1 26.29 C-1.08 24.14, 2.78 22.08, 9.4 19.78 C16.01 17.48, 26.18 14.62, 38.68 12.48 C51.19 10.34, 66.55 8.39, 84.43 6.95 C102.3 5.51, 123.82 4.71, 145.93 3.82 C168.05 2.94, 188.48 2.32, 217.11 1.62 C245.74 0.93, 296.99 -0.31, 317.7 -0.33 C338.42 -0.35, 341.81 1.16, 341.38 1.5 M319.61 0.88 C343.95 0.42, 369.02 0.32, 392.49 0.94 C415.96 1.56, 439.77 3.14, 460.42 4.62 C481.07 6.1, 499.87 7.91, 516.38 9.81 C532.9 11.7, 548.89 14.16, 559.5 15.99 C570.11 17.82, 575.81 18.96, 580.04 20.77 C584.27 22.58, 587 24.39, 584.9 26.87 C582.8 29.35, 576.12 33.6, 567.45 35.64 C558.77 37.68, 546.97 37.31, 532.84 39.1 C518.71 40.9, 502.13 44.78, 482.67 46.43 C463.22 48.07, 439.16 48.41, 416.12 48.97 C393.08 49.52, 369.13 49.17, 344.42 49.76 C319.72 50.36, 293.08 52.63, 267.89 52.54 C242.71 52.45, 216.98 49.99, 193.3 49.2 C169.62 48.42, 146.64 49, 125.83 47.82 C105.01 46.64, 84.6 44.02, 68.44 42.12 C52.28 40.21, 39.59 38.41, 28.88 36.41 C18.16 34.4, 8.53 32.06, 4.14 30.1 C-0.24 28.14, 0.51 26.83, 2.57 24.64 C4.63 22.45, 8 18.99, 16.49 16.95 C24.97 14.91, 39.02 14.19, 53.47 12.41 C67.92 10.63, 83.96 7.9, 103.19 6.28 C122.41 4.66, 145.51 3.89, 168.82 2.69 C192.13 1.49, 218.08 -0.33, 243.07 -0.91 C268.05 -1.5, 306.47 -0.89, 318.73 -0.81 C330.98 -0.74, 317.22 -0.96, 316.59 -0.46" stroke="none" stroke-width="0" fill="#ffc9c9"></path><path d="M388.11 0.44 C412.38 0.77, 435.01 2.32, 455.99 3.66 C476.96 4.99, 497.26 6.8, 513.96 8.47 C530.65 10.14, 545.02 11.76, 556.16 13.67 C567.3 15.59, 575.99 17.6, 580.78 19.96 C585.58 22.32, 586.67 25.41, 584.95 27.83 C583.23 30.25, 578.54 32.5, 570.47 34.46 C562.39 36.42, 550.72 37.93, 536.5 39.57 C522.29 41.21, 504.26 42.71, 485.19 44.29 C466.13 45.87, 444.69 48.02, 422.12 49.04 C399.54 50.06, 374.46 50.09, 349.73 50.41 C325 50.74, 298.96 51.02, 273.74 51 C248.51 50.97, 222.2 51.03, 198.37 50.26 C174.54 49.5, 151.79 47.59, 130.75 46.4 C109.71 45.21, 88.87 44.61, 72.13 43.15 C55.39 41.69, 41.5 39.63, 30.3 37.64 C19.1 35.65, 9.97 33.61, 4.92 31.2 C-0.13 28.79, -1.75 25.42, 0 23.19 C1.76 20.96, 7.17 19.7, 15.46 17.82 C23.76 15.95, 35.73 13.94, 49.75 11.94 C63.76 9.95, 80.39 7.33, 99.54 5.87 C118.68 4.42, 141.92 4.25, 164.6 3.21 C187.29 2.18, 210.88 0.06, 235.67 -0.33 C260.46 -0.71, 286.45 0.58, 313.36 0.89 C340.27 1.2, 382.26 1.37, 397.15 1.53 C412.03 1.7, 404.38 1.43, 402.65 1.87 M268.8 1.03 C292.12 0.37, 319.52 0.27, 344.5 0.49 C369.47 0.72, 395.48 1.19, 418.65 2.37 C441.82 3.55, 464.22 6.14, 483.52 7.58 C502.81 9.02, 520.05 9.6, 534.41 11.03 C548.78 12.45, 561.05 14, 569.71 16.13 C578.38 18.26, 584.7 21.66, 586.41 23.81 C588.13 25.96, 584.76 26.87, 580.01 29.02 C575.25 31.18, 568.71 34.33, 557.88 36.75 C547.05 39.17, 531.46 41.75, 515.01 43.54 C498.55 45.33, 479.58 46.28, 459.14 47.49 C438.7 48.7, 415.87 50.09, 392.37 50.79 C368.87 51.49, 343.42 51.82, 318.13 51.7 C292.85 51.59, 265.53 50.64, 240.66 50.08 C215.78 49.52, 191.68 49.2, 168.89 48.35 C146.09 47.49, 123.4 46.12, 103.88 44.97 C84.36 43.82, 66.21 43.48, 51.75 41.46 C37.29 39.43, 25.55 35.3, 17.12 32.81 C8.69 30.31, 3.32 28.47, 1.17 26.48 C-0.98 24.49, -0.08 22.75, 4.21 20.86 C8.5 18.98, 15.94 17.16, 26.91 15.19 C37.89 13.22, 53.38 11.02, 70.05 9.03 C86.71 7.04, 106.04 4.34, 126.9 3.23 C147.75 2.12, 171.4 2.79, 195.19 2.38 C218.98 1.96, 257.32 1.15, 269.64 0.75 C281.96 0.35, 268.89 -0.45, 269.11 -0.03" stroke="#1e1e1e" stroke-width="2" fill="none"></path></g><g transform="translate(737.677912086951 154.3489333899562) rotate(0 159.13980102539062 12.5)"><text x="159.13980102539062" y="17.52" font-family="Virgil, Segoe UI Emoji" font-size="20px" fill="#1e1e1e" text-anchor="middle" style="white-space: pre;" direction="ltr" dominant-baseline="alphabetic">paketobuildpacks/run-jammy-base</text></g><g stroke-linecap="round"><g transform="translate(234.0822703030492 56.96567862714511) rotate(0 53.71823620775649 12.81045241809673)"><path d="M0.63 0.38 C18.73 4.79, 89.74 22.25, 107.6 26.41 M-0.5 -0.47 C17.55 3.6, 88.79 20.2, 106.74 24.7" stroke="#1e1e1e" stroke-width="2" fill="none"></path></g><g transform="translate(234.0822703030492 56.96567862714511) rotate(0 53.71823620775649 12.81045241809673)"><path d="M81.9 27.52 C87.85 27.06, 93.86 26.77, 106.74 24.7 M81.9 27.52 C89.62 27.41, 96.43 26, 106.74 24.7" stroke="#1e1e1e" stroke-width="2" fill="none"></path></g><g transform="translate(234.0822703030492 56.96567862714511) rotate(0 53.71823620775649 12.81045241809673)"><path d="M85.9 10.89 C90.99 14.02, 96.14 17.29, 106.74 24.7 M85.9 10.89 C92.54 15.39, 98.24 18.59, 106.74 24.7" stroke="#1e1e1e" stroke-width="2" fill="none"></path></g></g><mask></mask><g stroke-linecap="round" transform="translate(480.5 310.11622464898596) rotate(0 212 22.96099843993761)"><path d="M11.48 0 C98.42 1.72, 185.67 2.04, 412.52 0 M11.48 0 C131.61 -1.92, 252.3 -2.15, 412.52 0 M412.52 0 C419.81 -1.63, 425.99 3.89, 424 11.48 M412.52 0 C422.28 1.92, 424.25 5.65, 424 11.48 M424 11.48 C424.42 19.35, 424.84 26.92, 424 34.44 M424 11.48 C423.07 17.26, 423.82 22.46, 424 34.44 M424 34.44 C425.86 41.99, 419.96 44.97, 412.52 45.92 M424 34.44 C423.98 42.51, 418.87 46.29, 412.52 45.92 M412.52 45.92 C278.02 46.56, 143.27 48.13, 11.48 45.92 M412.52 45.92 C272.49 46.45, 130.85 46.75, 11.48 45.92 M11.48 45.92 C5.81 47.14, 1.55 40.82, 0 34.44 M11.48 45.92 C1.57 48.14, -0.67 42.34, 0 34.44 M0 34.44 C0.9 28.73, 1.04 20.51, 0 11.48 M0 34.44 C0.46 27.84, 0.76 18.99, 0 11.48 M0 11.48 C0.52 2.85, 4.5 -1.37, 11.48 0 M0 11.48 C-1.92 5.76, 2.9 -0.81, 11.48 0" stroke="#1e1e1e" stroke-width="2" fill="none"></path></g><g transform="translate(528.3502197265625 320.5772230889236) rotate(0 164.1497802734375 12.5)"><text x="164.1497802734375" y="17.52" font-family="Virgil, Segoe UI Emoji" font-size="20px" fill="#1e1e1e" text-anchor="middle" style="white-space: pre;" direction="ltr" dominant-baseline="alphabetic">paketo-buildpacks/ca-certificates</text></g><g stroke-linecap="round" transform="translate(301.5 235.9617784711388) rotate(0 212 22.96099843993761)"><path d="M11.48 0 C157.12 -1.29, 303.84 -2.26, 412.52 0 M11.48 0 C149 -0.48, 287.28 -0.01, 412.52 0 M412.52 0 C422 1.67, 424.22 5.41, 424 11.48 M412.52 0 C421.94 -0.87, 423.05 4.41, 424 11.48 M424 11.48 C423.18 15.91, 423.99 21.94, 424 34.44 M424 11.48 C424.93 18.19, 423.89 24.54, 424 34.44 M424 34.44 C423.98 42.46, 419.04 46.25, 412.52 45.92 M424 34.44 C424.85 43.16, 421.86 47.09, 412.52 45.92 M412.52 45.92 C329.19 46.19, 245.04 48.1, 11.48 45.92 M412.52 45.92 C301.78 46.98, 190.35 46.28, 11.48 45.92 M11.48 45.92 C1.87 47.85, -0.59 42.31, 0 34.44 M11.48 45.92 C3.92 44.72, -1.64 43, 0 34.44 M0 34.44 C0.36 26.02, 1.65 18.66, 0 11.48 M0 34.44 C0.09 25.18, 0.16 16.22, 0 11.48 M0 11.48 C-1.67 5.51, 3.02 -0.7, 11.48 0 M0 11.48 C-0.06 2.71, 3.84 0.12, 11.48 0" stroke="#1e1e1e" stroke-width="2" fill="none"></path></g><g transform="translate(412.52012634277344 246.42277691107643) rotate(0 100.97987365722656 12.5)"><text x="100.97987365722656" y="17.52" font-family="Virgil, Segoe UI Emoji" font-size="20px" fill="#1e1e1e" text-anchor="middle" style="white-space: pre;" direction="ltr" dominant-baseline="alphabetic">paketo-buildpacks/go</text></g><g stroke-linecap="round"><g transform="translate(448.33101147248453 296.92745709828387) rotate(0 11.13505717026112 26.036271450858067)"><path d="M-0.19 0.52 C-1.25 9.01, -10.27 46.62, -5.51 52.09 C-0.75 57.55, 22.5 36.29, 28.39 33.33 M-1.75 -0.26 C-2.96 8.95, -10.9 47.9, -6.03 53.63 C-1.15 59.36, 22 37.16, 27.51 34.14" stroke="#1e1e1e" stroke-width="2" fill="none"></path></g><g transform="translate(448.33101147248453 296.92745709828387) rotate(0 11.13505717026112 26.036271450858067)"><path d="M16.88 50.6 C21.49 45.87, 24.6 38.1, 27.51 34.14 M16.88 50.6 C19.94 47.81, 21.47 44.17, 27.51 34.14" stroke="#1e1e1e" stroke-width="2" fill="none"></path></g><g transform="translate(448.33101147248453 296.92745709828387) rotate(0 11.13505717026112 26.036271450858067)"><path d="M8.78 39.91 C16.49 39.15, 22.59 35.32, 27.51 34.14 M8.78 39.91 C13.72 39.46, 17.03 38.16, 27.51 34.14" stroke="#1e1e1e" stroke-width="2" fill="none"></path></g></g><mask></mask><g stroke-linecap="round" transform="translate(482 449.0390015600624) rotate(0 212 22.96099843993761)"><path d="M11.48 0 C127.4 -1.43, 246.13 -1.56, 412.52 0 M11.48 0 C108.05 -2.34, 206.03 -2.06, 412.52 0 M412.52 0 C420.76 -0.81, 424.76 4.2, 424 11.48 M412.52 0 C421.23 2.05, 424.7 3.1, 424 11.48 M424 11.48 C423.07 17.04, 422.45 23.29, 424 34.44 M424 11.48 C424.04 19.99, 425 29.53, 424 34.44 M424 34.44 C423.01 43.09, 418.41 47.12, 412.52 45.92 M424 34.44 C421.78 41.65, 419.8 46.64, 412.52 45.92 M412.52 45.92 C287.43 46.57, 163.03 45.6, 11.48 45.92 M412.52 45.92 C269.37 44.62, 126.92 44.74, 11.48 45.92 M11.48 45.92 C3.45 46.72, 1.58 42, 0 34.44 M11.48 45.92 C4.49 44.53, -2.11 42.59, 0 34.44 M0 34.44 C-0.39 30.45, 0.21 26.02, 0 11.48 M0 34.44 C0.65 29.76, 0.56 23.36, 0 11.48 M0 11.48 C-0.64 5.81, 1.93 1.33, 11.48 0 M0 11.48 C-1.15 3.39, 4.83 -1.57, 11.48 0" stroke="#1e1e1e" stroke-width="2" fill="none"></path></g><g transform="translate(536.3401794433594 459.5) rotate(0 157.65982055664062 12.5)"><text x="157.65982055664062" y="17.52" font-family="Virgil, Segoe UI Emoji" font-size="20px" fill="#1e1e1e" text-anchor="middle" style="white-space: pre;" direction="ltr" dominant-baseline="alphabetic">paketo-buildpacks/go-mod-vendor</text></g><g stroke-linecap="round"><g transform="translate(394 298) rotate(0 42.5 93)"><path d="M0.51 -1.11 C1.97 30.07, -6.29 157.47, 7.67 186.3 C21.64 215.14, 71.51 174.21, 84.3 171.88 M-0.69 0.92 C0.78 31.78, -7.51 155.68, 7.08 184.34 C21.66 213, 73.94 174.69, 86.83 172.86" stroke="#1e1e1e" stroke-width="2" fill="none"></path></g><g transform="translate(394 298) rotate(0 42.5 93)"><path d="M68.65 190.02 C70.67 187.51, 76.8 181.67, 86.83 172.86 M68.65 190.02 C74.07 185.67, 78.38 182.39, 86.83 172.86" stroke="#1e1e1e" stroke-width="2" fill="none"></path></g><g transform="translate(394 298) rotate(0 42.5 93)"><path d="M61.87 174.32 C65.19 175.03, 72.72 172.44, 86.83 172.86 M61.87 174.32 C68.88 173.84, 74.86 174.41, 86.83 172.86" stroke="#1e1e1e" stroke-width="2" fill="none"></path></g></g><mask></mask><g stroke-linecap="round" transform="translate(482.6648220861141 525.6150780137259) rotate(0 211.9999999999999 22.96099843993761)"><path d="M11.48 0 C123.34 2.17, 234.62 1.61, 412.52 0 M11.48 0 C159.5 1.51, 306.25 2.03, 412.52 0 M412.52 0 C418.4 -1.74, 422.46 4.5, 424 11.48 M412.52 0 C420.2 0.75, 423.14 1.74, 424 11.48 M424 11.48 C425.11 22.54, 424.28 29.05, 424 34.44 M424 11.48 C423.87 17.53, 423.56 26.18, 424 34.44 M424 34.44 C425.47 41.52, 422.11 46.27, 412.52 45.92 M424 34.44 C426 40.59, 419.64 46.57, 412.52 45.92 M412.52 45.92 C262.88 45.05, 110.48 46.66, 11.48 45.92 M412.52 45.92 C258.13 45.44, 103.86 45.11, 11.48 45.92 M11.48 45.92 C3.97 47.81, 0.58 42.21, 0 34.44 M11.48 45.92 C4.57 46.09, 0.77 43.08, 0 34.44 M0 34.44 C1.55 28.26, 0.07 23.21, 0 11.48 M0 34.44 C0.17 27.94, 0.66 21.8, 0 11.48 M0 11.48 C1.19 3.13, 3.77 -0.03, 11.48 0 M0 11.48 C-2.3 4.11, 4.69 -1.85, 11.48 0" stroke="#1e1e1e" stroke-width="2" fill="none"></path></g><g transform="translate(568.3049816930477 536.0760764536635) rotate(0 126.3598403930664 12.5)"><text x="126.3598403930664" y="17.52" font-family="Virgil, Segoe UI Emoji" font-size="20px" fill="#1e1e1e" text-anchor="middle" style="white-space: pre;" direction="ltr" dominant-baseline="alphabetic">paketo-buildpacks/go-build</text></g><g stroke-linecap="round"><g transform="translate(363.6648220861141 294.5760764536635) rotate(0 56.999999999999886 129)"><path d="M0.43 0.82 C2.75 43.57, -4.08 215.72, 14.98 257.17 C34.03 298.63, 98.45 250.63, 114.76 249.54 M-0.8 0.2 C1.36 43.03, -4.66 216.51, 14.54 258.28 C33.74 300.04, 98.08 252.41, 114.4 250.8" stroke="#1e1e1e" stroke-width="2" fill="none"></path></g><g transform="translate(363.6648220861141 294.5760764536635) rotate(0 56.999999999999886 129)"><path d="M95.85 267.57 C104.27 262.67, 108.67 255.86, 114.4 250.8 M95.85 267.57 C100.54 261.66, 106.06 257.98, 114.4 250.8" stroke="#1e1e1e" stroke-width="2" fill="none"></path></g><g transform="translate(363.6648220861141 294.5760764536635) rotate(0 56.999999999999886 129)"><path d="M89.41 251.73 C100.4 252.91, 107.28 252.2, 114.4 250.8 M89.41 251.73 C95.82 250.38, 103.22 251.32, 114.4 250.8" stroke="#1e1e1e" stroke-width="2" fill="none"></path></g></g><mask></mask><g stroke-linecap="round" transform="translate(485 378.46531805977247) rotate(0 212 22.96099843993761)"><path d="M11.48 0 C150.34 -1.75, 288.56 -0.99, 412.52 0 M11.48 0 C166.11 -1.35, 319.51 -1.35, 412.52 0 M412.52 0 C420.59 -1.36, 424.59 2.19, 424 11.48 M412.52 0 C420.11 2.17, 422.13 2.43, 424 11.48 M424 11.48 C424.29 18.8, 424.33 22.96, 424 34.44 M424 11.48 C425.11 20.97, 423.27 27.64, 424 34.44 M424 34.44 C423.65 40.45, 420.24 46.68, 412.52 45.92 M424 34.44 C425.88 41.78, 418.17 45.22, 412.52 45.92 M412.52 45.92 C308.96 47.78, 203.26 46.52, 11.48 45.92 M412.52 45.92 C297.24 43.96, 182.22 44.08, 11.48 45.92 M11.48 45.92 C3.44 46.56, -0.41 43.49, 0 34.44 M11.48 45.92 C5.98 46.49, 1.13 42.08, 0 34.44 M0 34.44 C-1.16 28.11, 0 21.88, 0 11.48 M0 34.44 C0.69 26.13, -0.31 16.58, 0 11.48 M0 11.48 C0.28 2.56, 2.21 -1.65, 11.48 0 M0 11.48 C-0.03 4.08, 2.48 -0.33, 11.48 0" stroke="#1e1e1e" stroke-width="2" fill="none"></path></g><g transform="translate(688.7800064086914 388.9263164997101) rotate(0 8.219993591308594 12.5)"><text x="8.219993591308594" y="17.52" font-family="Virgil, Segoe UI Emoji" font-size="20px" fill="#1e1e1e" text-anchor="middle" style="white-space: pre;" direction="ltr" dominant-baseline="alphabetic">...</text></g><g stroke-linecap="round" transform="translate(486 595.4653180597725) rotate(0 212 22.96099843993761)"><path d="M11.48 0 C95.75 -0.49, 178.14 -0.63, 412.52 0 M11.48 0 C112.15 -1.63, 213.19 -1.2, 412.52 0 M412.52 0 C419.98 0.05, 423.89 5.5, 424 11.48 M412.52 0 C417.89 -0.27, 422.84 6.03, 424 11.48 M424 11.48 C425.51 20.49, 425.59 27.74, 424 34.44 M424 11.48 C423.78 17.04, 423.86 22.4, 424 34.44 M424 34.44 C423.29 42.26, 421.97 45.31, 412.52 45.92 M424 34.44 C425.94 42.43, 419.83 47.05, 412.52 45.92 M412.52 45.92 C270.82 46.91, 132.2 48.09, 11.48 45.92 M412.52 45.92 C323.97 45.54, 235.92 44.65, 11.48 45.92 M11.48 45.92 C3.19 46.34, -0.01 41.75, 0 34.44 M11.48 45.92 C5.53 44.15, -0.13 42.15, 0 34.44 M0 34.44 C-0.18 27.11, -1.2 15.37, 0 11.48 M0 34.44 C0.69 26.46, 0.59 17.98, 0 11.48 M0 11.48 C1.45 5.02, 2.93 -1.43, 11.48 0 M0 11.48 C-1.87 2.61, 6.12 1.46, 11.48 0" stroke="#1e1e1e" stroke-width="2" fill="none"></path></g><g transform="translate(689.7800064086914 605.9263164997101) rotate(0 8.219993591308594 12.5)"><text x="8.219993591308594" y="17.52" font-family="Virgil, Segoe UI Emoji" font-size="20px" fill="#1e1e1e" text-anchor="middle" style="white-space: pre;" direction="ltr" dominant-baseline="alphabetic">...</text></g><g stroke-linecap="round"><g transform="translate(337 295.4263164997101) rotate(0 72 165)"><path d="M-0.93 0.64 C2.19 55.75, -5.03 275.47, 19.26 330.23 C43.56 384.98, 123.86 329.23, 144.85 329.15 M0.79 -0.06 C3.72 54.7, -5.51 273.7, 18.45 328.22 C42.41 382.74, 123.87 327.15, 144.53 327.07" stroke="#1e1e1e" stroke-width="2" fill="none"></path></g><g transform="translate(337 295.4263164997101) rotate(0 72 165)"><path d="M124.94 342.61 C132.85 337.82, 138.93 333.42, 144.53 327.07 M124.94 342.61 C131.62 337.42, 138.1 331.33, 144.53 327.07" stroke="#1e1e1e" stroke-width="2" fill="none"></path></g><g transform="translate(337 295.4263164997101) rotate(0 72 165)"><path d="M119.54 326.38 C129.26 327.25, 137.21 328.47, 144.53 327.07 M119.54 326.38 C128.23 326.7, 136.55 326.16, 144.53 327.07" stroke="#1e1e1e" stroke-width="2" fill="none"></path></g></g><mask></mask><g stroke-linecap="round"><g transform="translate(422.9289343680814 299.17806927173706) rotate(0 28.000000000000057 60.5)"><path d="M0.36 0.33 C0.38 20.57, -10.06 103.69, -0.57 120.68 C8.91 137.67, 47.67 105.24, 57.26 102.26 M-0.91 -0.55 C-0.94 19.93, -10.89 104.67, -1.3 122.05 C8.29 139.43, 46.88 107.29, 56.62 103.74" stroke="#1e1e1e" stroke-width="2" fill="none"></path></g><g transform="translate(422.9289343680814 299.17806927173706) rotate(0 28.000000000000057 60.5)"><path d="M40.7 123.01 C45.21 119.01, 47.99 114.07, 56.62 103.74 M40.7 123.01 C46.82 116.24, 50.6 110.55, 56.62 103.74" stroke="#1e1e1e" stroke-width="2" fill="none"></path></g><g transform="translate(422.9289343680814 299.17806927173706) rotate(0 28.000000000000057 60.5)"><path d="M32.04 108.26 C38.56 107.8, 43.42 106.43, 56.62 103.74 M32.04 108.26 C40.96 106.22, 47.56 105.33, 56.62 103.74" stroke="#1e1e1e" stroke-width="2" fill="none"></path></g></g><mask></mask><g stroke-linecap="round" transform="translate(472.7794737815857 758.8765169381797) rotate(0 212 22.96099843993761)"><path d="M11.48 0 C162.6 -0.07, 315.12 -0.07, 412.52 0 C418.06 -2.02, 424.94 2.53, 424 11.48 C422.19 15.9, 426.77 20.32, 424 34.44 C426.86 42.82, 420.45 48.63, 412.52 45.92 C284.16 41.83, 158.11 43.35, 11.48 45.92 C2.06 46.96, 2.87 42.41, 0 34.44 C2.43 27.05, 2.58 16.13, 0 11.48 C2.77 5.63, 4.3 0.68, 11.48 0" stroke="none" stroke-width="0" fill="#b2f2bb"></path><path d="M11.48 0 C109.44 -0.89, 206.48 -2.01, 412.52 0 M11.48 0 C165.77 1.58, 320.5 1.98, 412.52 0 M412.52 0 C421.41 -0.2, 423.01 5.02, 424 11.48 M412.52 0 C421.41 0.89, 425.71 1.67, 424 11.48 M424 11.48 C422.43 17.97, 421.99 24.77, 424 34.44 M424 11.48 C422.91 19.07, 424.15 27.05, 424 34.44 M424 34.44 C423.16 42, 421.94 44.07, 412.52 45.92 M424 34.44 C422.69 41.13, 419.46 43.89, 412.52 45.92 M412.52 45.92 C327.11 45.31, 242.34 46.5, 11.48 45.92 M412.52 45.92 C313.92 47.45, 215.19 46.59, 11.48 45.92 M11.48 45.92 C4.78 45.02, -1.7 44.04, 0 34.44 M11.48 45.92 C5.12 47.74, -0.15 42.45, 0 34.44 M0 34.44 C-0.05 26.88, -0.17 24.17, 0 11.48 M0 34.44 C0.63 24.76, -0.59 16, 0 11.48 M0 11.48 C0.32 4.3, 3.23 0.69, 11.48 0 M0 11.48 C0.73 1.74, 2.18 1.99, 11.48 0" stroke="#1e1e1e" stroke-width="2" fill="none"></path></g><g transform="translate(520.6296935081482 769.3375153781174) rotate(0 164.1497802734375 12.5)"><text x="164.1497802734375" y="17.52" font-family="Virgil, Segoe UI Emoji" font-size="20px" fill="#1e1e1e" text-anchor="middle" style="white-space: pre;" direction="ltr" dominant-baseline="alphabetic">paketo-buildpacks/ca-certificates</text></g><g stroke-linecap="round" transform="translate(293.7794737815857 684.7220707603326) rotate(0 212 22.96099843993761)"><path d="M11.48 0 C99.06 2.06, 189.55 2.47, 412.52 0 C417.28 -2.43, 421.38 2.3, 424 11.48 C427.22 18.7, 424.63 27.18, 424 34.44 C424.6 40.72, 417.19 43.47, 412.52 45.92 C305.4 48.11, 201.9 47.7, 11.48 45.92 C7.03 46.79, -2.93 44.62, 0 34.44 C2.47 28.38, 0.16 19.38, 0 11.48 C3.34 7.05, 3.22 -0.49, 11.48 0" stroke="none" stroke-width="0" fill="#b2f2bb"></path><path d="M11.48 0 C170.26 0.76, 326.16 -0.26, 412.52 0 M11.48 0 C106.98 -0.27, 201.51 0.13, 412.52 0 M412.52 0 C421.25 0.77, 425.49 1.95, 424 11.48 M412.52 0 C420.67 -1.85, 423.84 2.24, 424 11.48 M424 11.48 C424.9 16.42, 422.29 21.23, 424 34.44 M424 11.48 C423.64 17, 424.94 21.69, 424 34.44 M424 34.44 C422.86 41.26, 419.56 44.16, 412.52 45.92 M424 34.44 C422.01 40.14, 420.29 46.33, 412.52 45.92 M412.52 45.92 C317.45 47.82, 224.18 47.25, 11.48 45.92 M412.52 45.92 C269.19 43.53, 124.83 44.34, 11.48 45.92 M11.48 45.92 C4.95 47.5, -0.13 42.4, 0 34.44 M11.48 45.92 C2.52 43.93, -0.09 41.81, 0 34.44 M0 34.44 C1.71 30.47, 1 26.63, 0 11.48 M0 34.44 C0.28 29.81, -0.18 25.05, 0 11.48 M0 11.48 C0.63 2.01, 2.39 1.73, 11.48 0 M0 11.48 C1.77 3.83, 2.96 -0.01, 11.48 0" stroke="#1e1e1e" stroke-width="2" fill="none"></path></g><g transform="translate(393.4996123313904 695.1830692002702) rotate(0 112.27986145019531 12.5)"><text x="112.27986145019531" y="17.52" font-family="Virgil, Segoe UI Emoji" font-size="20px" fill="#1e1e1e" text-anchor="middle" style="white-space: pre;" direction="ltr" dominant-baseline="alphabetic">paketo-buildpacks/java</text></g><g stroke-linecap="round"><g transform="translate(440.6104852540702 745.6877493874777) rotate(0 11.13505717026112 26.036271450858067)"><path d="M-0.41 -0.75 C-1.56 8.12, -11.16 46.36, -6.2 52.18 C-1.24 58.01, 23.64 37.05, 29.34 34.19 M1.57 1.47 C0.22 10.64, -11.64 48.12, -7.08 53.78 C-2.51 59.44, 23.13 38.93, 28.97 35.44" stroke="#1e1e1e" stroke-width="2" fill="none"></path></g><g transform="translate(440.6104852540702 745.6877493874777) rotate(0 11.13505717026112 26.036271450858067)"><path d="M17.64 51.43 C20.58 45.99, 26.02 41.3, 28.97 35.44 M17.64 51.43 C21.53 47.1, 25.01 41.17, 28.97 35.44" stroke="#1e1e1e" stroke-width="2" fill="none"></path></g><g transform="translate(440.6104852540702 745.6877493874777) rotate(0 11.13505717026112 26.036271450858067)"><path d="M10.01 40.41 C15.57 38.92, 23.73 38.15, 28.97 35.44 M10.01 40.41 C16.06 39.23, 21.76 36.5, 28.97 35.44" stroke="#1e1e1e" stroke-width="2" fill="none"></path></g></g><mask></mask><g stroke-linecap="round" transform="translate(474.2794737815857 897.7992938492562) rotate(0 212 22.96099843993761)"><path d="M11.48 0 C118.13 0.45, 224.45 -0.81, 412.52 0 M11.48 0 C156.09 -1.4, 299.97 -1.33, 412.52 0 M412.52 0 C420.03 -1.38, 423.11 2.01, 424 11.48 M412.52 0 C418.47 1.28, 422.93 2.1, 424 11.48 M424 11.48 C422.36 15.26, 423.78 22.49, 424 34.44 M424 11.48 C423.56 15.35, 423 20.15, 424 34.44 M424 34.44 C424.1 42.45, 418.88 47.75, 412.52 45.92 M424 34.44 C424.96 40.86, 422.13 47.14, 412.52 45.92 M412.52 45.92 C277.38 47.52, 143.86 46.02, 11.48 45.92 M412.52 45.92 C253.09 47.79, 93.41 47.22, 11.48 45.92 M11.48 45.92 C3.75 45.67, -1.98 41.72, 0 34.44 M11.48 45.92 C4.85 47.84, 0.74 43.19, 0 34.44 M0 34.44 C-1.46 26.25, 0.68 16.83, 0 11.48 M0 34.44 C-0.79 27.63, 0.7 19.08, 0 11.48 M0 11.48 C-0.75 3.82, 2.25 1.36, 11.48 0 M0 11.48 C-1.81 2.48, 2.54 0.6, 11.48 0" stroke="#1e1e1e" stroke-width="2" fill="none"></path></g><g transform="translate(678.0594801902771 908.2602922891938) rotate(0 8.219993591308594 12.5)"><text x="8.219993591308594" y="17.52" font-family="Virgil, Segoe UI Emoji" font-size="20px" fill="#1e1e1e" text-anchor="middle" style="white-space: pre;" direction="ltr" dominant-baseline="alphabetic">...</text></g><g stroke-linecap="round"><g transform="translate(386.2794737815857 746.7602922891938) rotate(0 42.5 93)"><path d="M-0.6 0.71 C0.56 31.81, -6.77 158.01, 7.64 186.46 C22.06 214.91, 72.96 173.89, 85.89 171.41 M1.29 0.04 C2.28 30.79, -7.02 155.9, 7.04 184.58 C21.09 213.27, 72.49 174.21, 85.59 172.14" stroke="#1e1e1e" stroke-width="2" fill="none"></path></g><g transform="translate(386.2794737815857 746.7602922891938) rotate(0 42.5 93)"><path d="M67.67 189.56 C75.36 184.42, 81.43 178.53, 85.59 172.14 M67.67 189.56 C71.26 185.42, 74.58 181.61, 85.59 172.14" stroke="#1e1e1e" stroke-width="2" fill="none"></path></g><g transform="translate(386.2794737815857 746.7602922891938) rotate(0 42.5 93)"><path d="M60.66 173.96 C70.88 174.5, 79.48 174.25, 85.59 172.14 M60.66 173.96 C65.73 173.09, 70.5 172.5, 85.59 172.14" stroke="#1e1e1e" stroke-width="2" fill="none"></path></g></g><mask></mask><g stroke-linecap="round" transform="translate(474.9442958676998 974.3753703029197) rotate(0 211.9999999999999 22.96099843993761)"><path d="M11.48 0 C166.21 -3.09, 321.65 -2.91, 412.52 0 C418.8 -2.98, 421.55 2.55, 424 11.48 C425.2 20.73, 424.48 27.44, 424 34.44 C424.87 39.17, 422.7 47.46, 412.52 45.92 C263.42 49.33, 112.67 50.95, 11.48 45.92 C7.05 45.31, -0.49 41.72, 0 34.44 C1.63 28.6, -2.48 18.01, 0 11.48 C-1.3 7.09, 2.02 1.86, 11.48 0" stroke="none" stroke-width="0" fill="#b2f2bb"></path><path d="M11.48 0 C112.33 -0.38, 211.26 -0.97, 412.52 0 M11.48 0 C99.2 1.05, 187 1.88, 412.52 0 M412.52 0 C419.25 -1.51, 422.03 2.68, 424 11.48 M412.52 0 C420.76 -1.73, 423.03 3.72, 424 11.48 M424 11.48 C422.95 19.77, 422.02 27.57, 424 34.44 M424 11.48 C423.37 17.33, 424.43 20.82, 424 34.44 M424 34.44 C425.7 43.15, 420.86 47.08, 412.52 45.92 M424 34.44 C425.07 39.93, 421.27 44.88, 412.52 45.92 M412.52 45.92 C327.23 47.12, 240.34 46.55, 11.48 45.92 M412.52 45.92 C326.47 45.54, 241.78 46.11, 11.48 45.92 M11.48 45.92 C4.47 46.88, 1.41 40.34, 0 34.44 M11.48 45.92 C2.64 44.01, 0.37 42.64, 0 34.44 M0 34.44 C-1.89 26.8, 1.65 23.57, 0 11.48 M0 34.44 C-0.7 28.23, -0.7 20.07, 0 11.48 M0 11.48 C-1.12 4.35, 3.1 -1.61, 11.48 0 M0 11.48 C-1.55 2.16, 2.85 -0.4, 11.48 0" stroke="#1e1e1e" stroke-width="2" fill="none"></path></g><g transform="translate(566.7444438779537 984.8363687428573) rotate(0 120.1998519897461 12.5)"><text x="120.1998519897461" y="17.52" font-family="Virgil, Segoe UI Emoji" font-size="20px" fill="#1e1e1e" text-anchor="middle" style="white-space: pre;" direction="ltr" dominant-baseline="alphabetic">paketo-buildpacks/gradle</text></g><g stroke-linecap="round"><g transform="translate(355.9442958676998 743.3363687428573) rotate(0 56.999999999999886 129)"><path d="M0.26 -0.97 C2.43 42.08, -4.95 215.58, 13.92 257.17 C32.78 298.76, 96.93 249.69, 113.46 248.55 M-1.06 1.14 C0.86 44.42, -5.99 216.91, 12.92 258.27 C31.84 299.63, 95.75 250.99, 112.42 249.29" stroke="#1e1e1e" stroke-width="2" fill="none"></path></g><g transform="translate(355.9442958676998 743.3363687428573) rotate(0 56.999999999999886 129)"><path d="M94.01 266.21 C99.44 259.7, 106.57 252.61, 112.42 249.29 M94.01 266.21 C97.52 261.82, 100.84 258.46, 112.42 249.29" stroke="#1e1e1e" stroke-width="2" fill="none"></path></g><g transform="translate(355.9442958676998 743.3363687428573) rotate(0 56.999999999999886 129)"><path d="M87.44 250.42 C95.19 249.8, 104.77 248.63, 112.42 249.29 M87.44 250.42 C92.21 249.29, 96.9 249.23, 112.42 249.29" stroke="#1e1e1e" stroke-width="2" fill="none"></path></g></g><mask></mask><g stroke-linecap="round" transform="translate(477.2794737815857 827.2256103489663) rotate(0 212 22.96099843993761)"><path d="M11.48 0 C137.07 2.65, 264.99 4.17, 412.52 0 C418.41 1.04, 426.87 4.14, 424 11.48 C426.62 21.95, 426.77 28.88, 424 34.44 C426.77 43.9, 420.64 46.6, 412.52 45.92 C254.77 45.02, 99.2 45.98, 11.48 45.92 C0.38 47.7, 2.88 39.76, 0 34.44 C-1.66 28.78, 1.34 21.29, 0 11.48 C2.19 0.67, 2.66 1.69, 11.48 0" stroke="none" stroke-width="0" fill="#b2f2bb"></path><path d="M11.48 0 C139.69 -0.35, 268.42 -0.68, 412.52 0 M11.48 0 C153.47 1.38, 296.71 1.28, 412.52 0 M412.52 0 C419.33 -0.09, 425.76 1.97, 424 11.48 M412.52 0 C418.86 -0.96, 423.29 1.8, 424 11.48 M424 11.48 C424.16 15.09, 425.63 22.11, 424 34.44 M424 11.48 C424.54 17.72, 424.66 21.85, 424 34.44 M424 34.44 C424.96 41.19, 418.47 47.87, 412.52 45.92 M424 34.44 C425.29 43.91, 420.03 46.27, 412.52 45.92 M412.52 45.92 C314.93 44.71, 217.41 46.33, 11.48 45.92 M412.52 45.92 C259.16 46.51, 104.72 46.53, 11.48 45.92 M11.48 45.92 C4.15 46.4, -0.6 42.78, 0 34.44 M11.48 45.92 C4.55 43.84, -1.65 44.08, 0 34.44 M0 34.44 C-0.01 24.22, 1.36 15.57, 0 11.48 M0 34.44 C-0.23 28.09, -0.55 22.63, 0 11.48 M0 11.48 C-0.85 3.48, 5.52 -0.69, 11.48 0 M0 11.48 C1.83 4.29, 4 1.73, 11.48 0" stroke="#1e1e1e" stroke-width="2" fill="none"></path></g><g transform="translate(523.8996825218201 837.6866087889039) rotate(0 165.37979125976562 12.5)"><text x="165.37979125976562" y="17.52" font-family="Virgil, Segoe UI Emoji" font-size="20px" fill="#1e1e1e" text-anchor="middle" style="white-space: pre;" direction="ltr" dominant-baseline="alphabetic">paketo-buildpacks/bellsoft-liberica</text></g><g stroke-linecap="round" transform="translate(478.2794737815857 1044.2256103489663) rotate(0 212 22.96099843993761)"><path d="M11.48 0 C114.48 1.16, 215.37 0.57, 412.52 0 M11.48 0 C108.51 1.68, 206.52 1.18, 412.52 0 M412.52 0 C419.03 -0.84, 423.38 2.06, 424 11.48 M412.52 0 C418.18 -1.95, 424.11 4.24, 424 11.48 M424 11.48 C423.14 18.59, 425.27 22.98, 424 34.44 M424 11.48 C424.59 19.25, 423.26 28.9, 424 34.44 M424 34.44 C425.13 43.67, 420.05 46.23, 412.52 45.92 M424 34.44 C422.69 40.1, 420.08 45.64, 412.52 45.92 M412.52 45.92 C332.91 47.29, 251.95 47.72, 11.48 45.92 M412.52 45.92 C327.57 44.17, 242.27 44.23, 11.48 45.92 M11.48 45.92 C4.46 44.11, -1.43 43.83, 0 34.44 M11.48 45.92 C5.59 45.93, -0.86 42.09, 0 34.44 M0 34.44 C-1.33 28.24, 0.37 23.55, 0 11.48 M0 34.44 C-0.27 29.23, 1 24.01, 0 11.48 M0 11.48 C1.59 4.23, 3.98 1.51, 11.48 0 M0 11.48 C0.38 2.95, 1.92 -1.57, 11.48 0" stroke="#1e1e1e" stroke-width="2" fill="none"></path></g><g transform="translate(571.479615688324 1054.6866087889039) rotate(0 118.79985809326172 12.5)"><text x="118.79985809326172" y="17.52" font-family="Virgil, Segoe UI Emoji" font-size="20px" fill="#1e1e1e" text-anchor="middle" style="white-space: pre;" direction="ltr" dominant-baseline="alphabetic">paketo-buildpacks/maven</text></g><g stroke-linecap="round"><g transform="translate(329.2794737815857 744.1866087889039) rotate(0 72 165)"><path d="M-1.18 -0.69 C2.13 54.31, -4.81 274.22, 19.3 329.1 C43.42 383.97, 122.54 328.85, 143.5 328.59 M0.4 1.56 C3.62 56.77, -5.16 275.44, 18.52 330.16 C42.19 384.88, 121.85 330.23, 142.46 329.88" stroke="#1e1e1e" stroke-width="2" fill="none"></path></g><g transform="translate(329.2794737815857 744.1866087889039) rotate(0 72 165)"><path d="M122.92 345.47 C126.85 342.21, 131.45 336.91, 142.46 329.88 M122.92 345.47 C127.99 340.62, 134.03 335.55, 142.46 329.88" stroke="#1e1e1e" stroke-width="2" fill="none"></path></g><g transform="translate(329.2794737815857 744.1866087889039) rotate(0 72 165)"><path d="M117.47 329.26 C122.66 330.17, 128.64 328.98, 142.46 329.88 M117.47 329.26 C124.29 329.26, 131.94 328.97, 142.46 329.88" stroke="#1e1e1e" stroke-width="2" fill="none"></path></g></g><mask></mask><g stroke-linecap="round"><g transform="translate(415.2084081496671 747.9383615609308) rotate(0 28.000000000000057 60.5)"><path d="M0.3 -0.9 C0.25 19.37, -11.13 103.99, -1.5 120.95 C8.12 137.9, 48.42 104.09, 58.06 100.85 M-0.99 1.23 C-1.15 21.77, -12.52 105.73, -2.72 122.45 C7.09 139.18, 48.03 104.94, 57.85 101.58" stroke="#1e1e1e" stroke-width="2" fill="none"></path></g><g transform="translate(415.2084081496671 747.9383615609308) rotate(0 28.000000000000057 60.5)"><path d="M41.93 120.86 C43.74 116.1, 48.36 114.82, 57.85 101.58 M41.93 120.86 C45.03 116.05, 47.77 112.09, 57.85 101.58" stroke="#1e1e1e" stroke-width="2" fill="none"></path></g><g transform="translate(415.2084081496671 747.9383615609308) rotate(0 28.000000000000057 60.5)"><path d="M33.26 106.12 C36.73 104.3, 43.1 105.99, 57.85 101.58 M33.26 106.12 C38.07 104.4, 42.61 103.49, 57.85 101.58" stroke="#1e1e1e" stroke-width="2" fill="none"></path></g></g><mask></mask><g stroke-linecap="round" transform="translate(478.0294737815857 1116.6484743116798) rotate(0 212 22.96099843993761)"><path d="M11.48 0 C152.53 -4.43, 292.95 -4.82, 412.52 0 C417.2 2.47, 420.61 4.47, 424 11.48 C422.05 17.2, 424.18 18.23, 424 34.44 C427.23 39.71, 422.14 47.57, 412.52 45.92 C303.49 47.36, 191.59 48.72, 11.48 45.92 C6.34 47.44, -3.02 45.55, 0 34.44 C3.81 26.98, 1.36 20.57, 0 11.48 C2.03 5.26, 6.45 0.03, 11.48 0" stroke="none" stroke-width="0" fill="#b2f2bb"></path><path d="M11.48 0 C137.84 -1.2, 262.92 -0.2, 412.52 0 M11.48 0 C143.78 -2.41, 275.42 -1.66, 412.52 0 M412.52 0 C421.53 1.77, 425.26 5.72, 424 11.48 M412.52 0 C421.44 -0.75, 422.2 4.39, 424 11.48 M424 11.48 C422.97 14.59, 423.64 19.5, 424 34.44 M424 11.48 C423.34 20.33, 424.88 28.85, 424 34.44 M424 34.44 C424.66 43.28, 420.75 46.16, 412.52 45.92 M424 34.44 C422.5 43.74, 419.58 44.33, 412.52 45.92 M412.52 45.92 C275.59 45.28, 139.72 45.4, 11.48 45.92 M412.52 45.92 C273.54 47.45, 134.13 47.68, 11.48 45.92 M11.48 45.92 C4.79 47.9, 1.57 43, 0 34.44 M11.48 45.92 C3.55 44.13, -1.94 40.45, 0 34.44 M0 34.44 C0.95 27.44, 0.63 23.42, 0 11.48 M0 34.44 C-0.35 26.88, -0.25 18.5, 0 11.48 M0 11.48 C1.35 5.19, 5.34 1.82, 11.48 0 M0 11.48 C1.05 6.02, 3.86 -1.89, 11.48 0" stroke="#1e1e1e" stroke-width="2" fill="none"></path></g><g transform="translate(547.149652004242 1127.1094727516174) rotate(0 142.87982177734375 12.5)"><text x="142.87982177734375" y="17.52" font-family="Virgil, Segoe UI Emoji" font-size="20px" fill="#1e1e1e" text-anchor="middle" style="white-space: pre;" direction="ltr" dominant-baseline="alphabetic">paketo-buildpacks/spring-boot</text></g><g stroke-linecap="round" transform="translate(477.0294737815857 1186.6484743116798) rotate(0 212 22.96099843993761)"><path d="M11.48 0 C99.2 -1.95, 188.54 -2.32, 412.52 0 M11.48 0 C126.7 0.35, 243.24 0.53, 412.52 0 M412.52 0 C418.58 -1.03, 424.82 5.45, 424 11.48 M412.52 0 C419.29 1.34, 424.89 2.46, 424 11.48 M424 11.48 C425.36 20.35, 423.6 26.53, 424 34.44 M424 11.48 C424.62 18.63, 424.45 24.41, 424 34.44 M424 34.44 C424.82 41.87, 420.24 45.58, 412.52 45.92 M424 34.44 C422.51 41.4, 420.88 45.93, 412.52 45.92 M412.52 45.92 C264.96 46.06, 119.18 46.56, 11.48 45.92 M412.52 45.92 C314.01 45.77, 215.12 45.31, 11.48 45.92 M11.48 45.92 C1.86 44.87, 0.25 42.89, 0 34.44 M11.48 45.92 C2.29 46.19, 0.62 43.78, 0 34.44 M0 34.44 C-0.56 28.74, 0.81 18.02, 0 11.48 M0 34.44 C-1.02 28.96, -0.5 24.79, 0 11.48 M0 11.48 C0.65 5.58, 3.77 -1.61, 11.48 0 M0 11.48 C-1.69 1.81, 5.78 0.1, 11.48 0" stroke="#1e1e1e" stroke-width="2" fill="none"></path></g><g transform="translate(680.8094801902771 1197.1094727516174) rotate(0 8.219993591308594 12.5)"><text x="8.219993591308594" y="17.52" font-family="Virgil, Segoe UI Emoji" font-size="20px" fill="#1e1e1e" text-anchor="middle" style="white-space: pre;" direction="ltr" dominant-baseline="alphabetic">...</text></g><g stroke-linecap="round"><g transform="translate(313.87371508404624 743.7130481360765) rotate(0 76.5 194.8205316638493)"><path d="M-0.01 0.34 C3.28 65.02, -6.64 323.35, 18.79 388.06 C44.21 452.77, 130.16 388.44, 152.54 388.59 M-1.48 -0.52 C1.8 64.36, -7.25 324.65, 18.25 389.63 C43.75 454.61, 129.02 389.35, 151.54 389.36" stroke="#1e1e1e" stroke-width="2" fill="none"></path></g><g transform="translate(313.87371508404624 743.7130481360765) rotate(0 76.5 194.8205316638493)"><path d="M132.39 405.43 C137.19 403.18, 140.96 397.55, 151.54 389.36 M132.39 405.43 C136.12 402.21, 141.14 399.5, 151.54 389.36" stroke="#1e1e1e" stroke-width="2" fill="none"></path></g><g transform="translate(313.87371508404624 743.7130481360765) rotate(0 76.5 194.8205316638493)"><path d="M126.54 389.36 C132.64 390.67, 137.71 388.6, 151.54 389.36 M126.54 389.36 C131.53 389.59, 137.78 390.29, 151.54 389.36" stroke="#1e1e1e" stroke-width="2" fill="none"></path></g></g><mask></mask><g stroke-linecap="round"><g transform="translate(292.4972624612459 737.6529480166587) rotate(0 88 236.32053166384935)"><path d="M0.38 -0.12 C6.27 77.72, 6.19 388.44, 35.58 467.06 C64.97 545.69, 153.32 470.67, 176.73 471.61 M-0.89 -1.22 C4.8 76.73, 4.87 389.18, 34.41 468.11 C63.95 547.05, 152.71 471.43, 176.35 472.39" stroke="#1e1e1e" stroke-width="2" fill="none"></path></g><g transform="translate(292.4972624612459 737.6529480166587) rotate(0 88 236.32053166384935)"><path d="M157.46 488.76 C163.24 482.82, 167.85 479.55, 176.35 472.39 M157.46 488.76 C161.79 484.71, 166.17 481.43, 176.35 472.39" stroke="#1e1e1e" stroke-width="2" fill="none"></path></g><g transform="translate(292.4972624612459 737.6529480166587) rotate(0 88 236.32053166384935)"><path d="M151.35 472.79 C159.07 471.89, 165.62 473.68, 176.35 472.39 M151.35 472.79 C157 472.15, 162.69 472.29, 176.35 472.39" stroke="#1e1e1e" stroke-width="2" fill="none"></path></g></g><mask></mask><g clip-path="url(#oDAa6coCiXWXiScyddGOv)"><g stroke-linecap="round" transform="translate(1057.5794737815856 828.2085943269449) rotate(0 241.72500000000002 28.093438494085603)"><path d="M180.69 1.11 C201.5 0.09, 228.42 -0.42, 252.36 -0.22 C276.29 -0.01, 301.93 1.37, 324.31 2.35 C346.7 3.34, 367.8 4.1, 386.68 5.69 C405.56 7.29, 423.45 9.6, 437.59 11.93 C451.73 14.27, 463.87 17.13, 471.53 19.68 C479.19 22.23, 482.92 24.54, 483.54 27.24 C484.17 29.94, 481.72 33.24, 475.29 35.87 C468.87 38.51, 458.01 40.75, 444.98 43.06 C431.95 45.37, 415.26 47.99, 397.09 49.73 C378.92 51.47, 357.61 52.47, 335.97 53.52 C314.33 54.56, 290.71 55.6, 267.26 56.01 C243.8 56.42, 218.77 56.55, 195.23 55.96 C171.69 55.38, 147.08 53.77, 126.04 52.5 C105 51.22, 85.36 50.25, 68.97 48.28 C52.59 46.32, 38.6 43.26, 27.73 40.73 C16.87 38.2, 8.1 35.94, 3.78 33.1 C-0.54 30.25, -1.12 26.37, 1.82 23.66 C4.77 20.94, 11.6 19.05, 21.45 16.81 C31.3 14.56, 45.31 12.35, 60.93 10.18 C76.55 8.02, 93.04 5.36, 115.17 3.81 C137.3 2.26, 178.49 1.29, 193.71 0.88 C208.94 0.47, 205.67 0.94, 206.51 1.36 M330.74 3.26 C353.03 3.43, 373.65 3.34, 392.14 4.9 C410.63 6.47, 428.41 10.29, 441.69 12.63 C454.97 14.96, 464.73 16.21, 471.82 18.92 C478.91 21.63, 483.87 26.03, 484.23 28.89 C484.59 31.75, 481.29 33.69, 473.97 36.08 C466.64 38.47, 454.06 40.9, 440.28 43.22 C426.5 45.55, 409.58 48.4, 391.3 50.02 C373.01 51.65, 352.71 51.79, 330.58 52.95 C308.45 54.12, 282.18 56.76, 258.52 57.01 C234.86 57.26, 211.41 55.36, 188.6 54.45 C165.79 53.55, 142.25 52.76, 121.66 51.58 C101.07 50.41, 81.17 49.44, 65.06 47.4 C48.95 45.36, 35.54 41.92, 25 39.34 C14.45 36.76, 5.39 34.4, 1.78 31.92 C-1.83 29.43, -0.16 26.99, 3.34 24.43 C6.84 21.87, 12.63 19.3, 22.79 16.58 C32.94 13.86, 47.93 10.13, 64.27 8.13 C80.61 6.14, 100.11 5.64, 120.84 4.6 C141.57 3.55, 165.43 2.48, 188.63 1.85 C211.82 1.23, 236.62 0.94, 260.02 0.86 C283.41 0.77, 317.44 0.84, 328.98 1.32 C340.52 1.81, 330.38 3.18, 329.26 3.77" stroke="none" stroke-width="0" fill="#ffc9c9"></path><path d="M282.17 0.9 C305.02 0.89, 328.18 2.56, 349.43 3.81 C370.67 5.06, 392.59 6.77, 409.66 8.4 C426.74 10.02, 440.56 11.33, 451.86 13.56 C463.16 15.78, 472.35 18.96, 477.44 21.73 C482.54 24.5, 484.43 27.43, 482.44 30.17 C480.46 32.91, 474.63 35.48, 465.52 38.16 C456.42 40.84, 442.96 44.02, 427.8 46.27 C412.65 48.51, 394.41 50.15, 374.57 51.63 C354.72 53.11, 331.45 54.3, 308.75 55.16 C286.04 56.02, 261.85 56.87, 238.35 56.8 C214.84 56.73, 190.3 55.77, 167.71 54.73 C145.12 53.68, 122.35 52.26, 102.81 50.55 C83.26 48.85, 64.97 46.5, 50.43 44.5 C35.89 42.51, 23.84 41.05, 15.55 38.58 C7.27 36.1, 2.04 32.65, 0.7 29.67 C-0.65 26.7, 1.88 23.37, 7.48 20.74 C13.09 18.11, 22.19 16.09, 34.31 13.88 C46.44 11.68, 62.46 9.25, 80.25 7.5 C98.04 5.75, 119.53 4.66, 141.03 3.4 C162.53 2.14, 185.22 0.29, 209.24 -0.06 C233.27 -0.42, 271.71 1.22, 285.17 1.25 C298.63 1.29, 290.45 -0.12, 289.98 0.15 M126.53 3.95 C144.97 2.2, 173.16 1.35, 196.64 0.7 C220.12 0.04, 244.17 -0.35, 267.4 0.04 C290.62 0.43, 314.07 1.73, 335.99 3.03 C357.91 4.34, 380.7 6.27, 398.93 7.88 C417.16 9.49, 432.79 10.46, 445.35 12.69 C457.92 14.91, 468.22 18.72, 474.3 21.21 C480.39 23.7, 482.72 24.95, 481.87 27.64 C481.03 30.33, 476.47 34.34, 469.23 37.35 C461.99 40.36, 452.45 43.62, 438.44 45.71 C424.44 47.79, 404.72 48.39, 385.19 49.84 C365.66 51.3, 343.47 53.33, 321.25 54.44 C299.03 55.55, 275.4 56.56, 251.89 56.5 C228.37 56.43, 203.12 54.81, 180.15 54.05 C157.18 53.3, 134.29 53.21, 114.08 51.96 C93.87 50.72, 74.37 48.5, 58.92 46.57 C43.47 44.65, 30.87 43.2, 21.38 40.44 C11.9 37.67, 5.13 32.85, 2 29.97 C-1.13 27.08, -1.72 25.61, 2.61 23.13 C6.93 20.64, 16.8 17.45, 27.94 15.06 C39.09 12.66, 52.74 10.81, 69.49 8.76 C86.23 6.7, 118.14 3.69, 128.4 2.71 C138.66 1.74, 129.14 2.42, 131.04 2.89" stroke="#1e1e1e" stroke-width="2" fill="none"></path></g></g><g clip-path="url(#oDAa6coCiXWXiScyddGOv)"><g transform="translate(1140.2392860738769 843.9369719550155) rotate(0 159.13980102539062 12.5)"><text x="159.13980102539062" y="17.52" font-family="Virgil, Segoe UI Emoji" font-size="20px" fill="#1e1e1e" text-anchor="middle" style="white-space: pre;" direction="ltr" dominant-baseline="alphabetic">paketobuildpacks/run-jammy-base</text></g></g><g clip-path="url(#oDAa6coCiXWXiScyddGOv)"><g stroke-linecap="round" transform="translate(1053.4544737815856 778.7680505142546) rotate(0 241.72500000000002 28.093438494085603)"><path d="M259.97 -0.38 C282.66 -0.55, 307.74 1.48, 329.59 2.62 C351.45 3.76, 372.69 5, 391.12 6.46 C409.55 7.92, 426.44 9.25, 440.17 11.39 C453.9 13.52, 466.45 16.59, 473.5 19.24 C480.55 21.9, 482.63 24.49, 482.49 27.32 C482.34 30.14, 479.58 33.48, 472.62 36.21 C465.67 38.93, 454.17 41.29, 440.77 43.7 C427.38 46.1, 410.76 48.79, 392.27 50.65 C373.79 52.52, 351.83 53.83, 329.88 54.88 C307.93 55.94, 284.17 56.77, 260.56 56.99 C236.95 57.22, 211.26 57.01, 188.2 56.24 C165.15 55.47, 142.9 53.84, 122.25 52.36 C101.59 50.88, 80.53 49.54, 64.28 47.38 C48.03 45.21, 34.85 41.89, 24.74 39.38 C14.63 36.87, 7.19 34.92, 3.62 32.31 C0.05 29.69, -0.02 26.34, 3.33 23.7 C6.69 21.06, 13.75 18.98, 23.76 16.45 C33.78 13.93, 47.25 10.82, 63.42 8.55 C79.6 6.28, 100.06 4.14, 120.82 2.84 C141.57 1.54, 162.46 1.18, 187.95 0.76 C213.43 0.33, 257.54 0.41, 273.73 0.29 C289.91 0.17, 285.86 -0.24, 285.07 0.05 M314.92 1.47 C337.46 2.03, 358.77 3.48, 378.3 4.95 C397.83 6.42, 417.48 8.16, 432.11 10.31 C446.74 12.46, 457.75 15.25, 466.08 17.86 C474.4 20.46, 480.4 22.95, 482.05 25.92 C483.69 28.89, 481.35 33.16, 475.95 35.69 C470.56 38.22, 461.55 38.94, 449.69 41.08 C437.82 43.22, 422.23 46.23, 404.74 48.55 C387.25 50.86, 365.9 53.81, 344.75 54.95 C323.6 56.09, 301.32 55.04, 277.83 55.38 C254.34 55.73, 227.71 57.27, 203.82 57 C179.93 56.73, 155.52 55.06, 134.49 53.79 C113.47 52.52, 95.01 51.54, 77.66 49.38 C60.31 47.21, 42.46 43.15, 30.39 40.79 C18.31 38.43, 10.35 37.89, 5.21 35.19 C0.06 32.49, -2.29 27.53, -0.48 24.6 C1.33 21.67, 7.04 19.87, 16.07 17.63 C25.1 15.4, 38.52 13.44, 53.68 11.21 C68.83 8.98, 87.18 5.71, 107.02 4.25 C126.86 2.79, 149.98 3.33, 172.7 2.45 C195.42 1.56, 219.82 -0.67, 243.34 -1.06 C266.86 -1.44, 302.32 -0.59, 313.83 0.14 C325.34 0.86, 313.47 2.59, 312.39 3.28" stroke="none" stroke-width="0" fill="#ffc9c9"></path><path d="M212.9 0.65 C234.75 -0.25, 262.01 -0.61, 285.48 -0.09 C308.96 0.43, 332.59 2.26, 353.74 3.76 C374.88 5.26, 395.46 6.98, 412.35 8.92 C429.24 10.85, 444.07 13.15, 455.06 15.38 C466.05 17.62, 473.68 19.57, 478.28 22.34 C482.87 25.11, 484.95 29.15, 482.63 32 C480.3 34.85, 473.7 37.02, 464.32 39.45 C454.95 41.88, 441.82 44.5, 426.37 46.58 C410.92 48.66, 391.74 50.6, 371.62 51.93 C351.5 53.26, 328.66 53.9, 305.65 54.57 C282.63 55.24, 257.38 56.09, 233.51 55.94 C209.64 55.8, 184.94 54.44, 162.42 53.71 C139.9 52.99, 117.31 53.02, 98.37 51.59 C79.42 50.15, 62.96 47.46, 48.74 45.11 C34.51 42.75, 21.21 40.1, 13 37.45 C4.8 34.79, 0.28 32.08, -0.49 29.16 C-1.26 26.24, 2.2 22.74, 8.39 19.95 C14.58 17.15, 24.15 14.43, 36.65 12.4 C49.15 10.36, 65.63 9.54, 83.4 7.74 C101.18 5.93, 120.42 2.93, 143.3 1.58 C166.17 0.22, 206.58 -0.11, 220.64 -0.39 C234.7 -0.67, 227.21 -0.65, 227.65 -0.1 M340.11 1.03 C361.93 1.56, 381.19 4.93, 399.1 7.14 C417.01 9.35, 434.78 12.17, 447.58 14.28 C460.37 16.38, 469.95 17.42, 475.89 19.77 C481.84 22.12, 484.47 25.65, 483.27 28.37 C482.07 31.09, 476.45 33.48, 468.69 36.09 C460.94 38.71, 450.67 41.52, 436.75 44.06 C422.83 46.6, 404.74 49.72, 385.18 51.35 C365.62 52.98, 342.14 53.22, 319.39 53.83 C296.64 54.44, 272 54.68, 248.7 55.01 C225.41 55.34, 202.41 56.58, 179.62 55.82 C156.84 55.05, 132.07 52.05, 111.98 50.41 C91.88 48.77, 74.41 47.63, 59.06 45.96 C43.7 44.28, 29.31 43.02, 19.84 40.37 C10.38 37.72, 4.8 32.85, 2.27 30.07 C-0.26 27.29, 0.48 26.41, 4.65 23.69 C8.82 20.98, 16.03 16.32, 27.27 13.81 C38.51 11.3, 54.85 10.31, 72.09 8.64 C89.33 6.96, 109.99 4.89, 130.69 3.77 C151.4 2.65, 173.1 2.61, 196.32 1.92 C219.55 1.22, 246.1 -0.24, 270.06 -0.4 C294.02 -0.56, 328.91 0.3, 340.09 0.96 C351.28 1.61, 339.1 2.75, 337.18 3.54" stroke="#1e1e1e" stroke-width="2" fill="none"></path></g></g><g clip-path="url(#oDAa6coCiXWXiScyddGOv)"><g transform="translate(1221.5341774312988 794.496428142325) rotate(0 73.71990966796875 12.499999999999943)"><text x="73.71990966796875" y="17.52" font-family="Virgil, Segoe UI Emoji" font-size="20px" fill="#1e1e1e" text-anchor="middle" style="white-space: pre;" direction="ltr" dominant-baseline="alphabetic">ca-certificates</text></g></g><g clip-path="url(#oDAa6coCiXWXiScyddGOv)"><g stroke-linecap="round" transform="translate(1050.1544737815857 733.7222217071368) rotate(0 241.72500000000002 28.093438494085603)"><path d="M148.22 2.3 C167.26 0.76, 193.65 -0.22, 217.37 -0.39 C241.1 -0.55, 267.17 0.61, 290.58 1.3 C313.99 1.99, 337.02 2.49, 357.82 3.77 C378.63 5.04, 398.77 6.88, 415.38 8.95 C432 11.01, 446.73 13.66, 457.53 16.16 C468.33 18.66, 476.04 21.31, 480.2 23.94 C484.35 26.57, 485.5 29.13, 482.46 31.93 C479.42 34.72, 472.02 38.41, 461.94 40.72 C451.86 43.03, 437.86 44.01, 421.99 45.77 C406.12 47.52, 387.07 49.55, 366.72 51.24 C346.36 52.93, 322.73 54.95, 299.87 55.9 C277.02 56.85, 253.06 57.29, 229.6 56.95 C206.14 56.62, 181.49 55, 159.1 53.89 C136.7 52.78, 114.22 52.01, 95.23 50.31 C76.24 48.61, 58.86 45.87, 45.18 43.69 C31.49 41.51, 20.48 39.59, 13.11 37.22 C5.74 34.86, 1.59 32.33, 0.98 29.53 C0.37 26.73, 3.11 23.24, 9.45 20.43 C15.79 17.63, 26.05 15.14, 39.01 12.7 C51.96 10.27, 67.45 7.72, 87.18 5.81 C106.91 3.9, 143.91 1.85, 157.4 1.24 C170.89 0.64, 166.74 1.72, 168.1 2.18 M187.99 1.33 C209.54 0.05, 238.13 -0.83, 262.18 -0.9 C286.24 -0.97, 310.63 -0.27, 332.31 0.91 C353.99 2.09, 374.11 4.29, 392.26 6.19 C410.42 8.09, 427.96 10.1, 441.25 12.31 C454.54 14.52, 465.06 16.6, 471.99 19.44 C478.93 22.27, 482.89 26.7, 482.84 29.31 C482.79 31.93, 478.53 32.63, 471.72 35.15 C464.9 37.67, 455.09 41.82, 441.95 44.42 C428.81 47.03, 411.81 49.21, 392.86 50.76 C373.92 52.32, 350.62 53.09, 328.28 53.77 C305.94 54.45, 282.52 54.47, 258.84 54.84 C235.16 55.21, 209.31 56.36, 186.22 56.01 C163.13 55.65, 140.79 54.11, 120.3 52.71 C99.82 51.31, 79.37 49.67, 63.33 47.58 C47.29 45.5, 34.27 42.82, 24.08 40.2 C13.89 37.58, 5.78 34.51, 2.17 31.84 C-1.44 29.17, -1.46 26.97, 2.42 24.17 C6.3 21.37, 15.13 17.55, 25.45 15.03 C35.77 12.51, 48.15 10.82, 64.35 9.06 C80.55 7.31, 101.65 5.87, 122.62 4.51 C143.6 3.15, 178.84 1.33, 190.19 0.89 C201.54 0.45, 190.22 1.39, 190.74 1.89" stroke="none" stroke-width="0" fill="#ffc9c9"></path><path d="M177.82 1.07 C198.54 -0.09, 224.31 -0.89, 247.92 -0.93 C271.53 -0.97, 296.78 -0.15, 319.48 0.84 C342.18 1.83, 365 3.23, 384.14 5 C403.28 6.77, 420.19 9.09, 434.3 11.48 C448.42 13.87, 460.77 16.81, 468.83 19.34 C476.89 21.86, 481.42 24.14, 482.64 26.64 C483.86 29.14, 482.16 31.75, 476.15 34.32 C470.15 36.89, 459.1 39.41, 446.6 42.05 C434.1 44.68, 418.94 48.24, 401.15 50.12 C383.35 52, 361.63 52.22, 339.86 53.34 C318.08 54.47, 293.94 56.42, 270.52 56.87 C247.1 57.32, 222.82 56.82, 199.34 56.07 C175.85 55.31, 150.77 53.52, 129.59 52.34 C108.41 51.15, 89.08 50.87, 72.25 48.94 C55.42 47.01, 39.81 43.23, 28.61 40.76 C17.4 38.29, 9.49 36.82, 5.02 34.11 C0.54 31.4, -0.74 27.45, 1.75 24.47 C4.25 21.5, 10.79 18.58, 19.98 16.25 C29.18 13.93, 41.73 12.44, 56.94 10.53 C72.15 8.62, 90.01 6.46, 111.25 4.79 C132.5 3.11, 170.62 1.1, 184.4 0.46 C198.18 -0.17, 192.85 0.46, 193.92 1 M282.5 0.85 C305.37 0.95, 328.38 3.17, 349.22 4.44 C370.06 5.72, 390.34 6.7, 407.56 8.51 C424.77 10.32, 440.66 12.98, 452.5 15.3 C464.35 17.62, 473.52 19.86, 478.62 22.44 C483.71 25.02, 485.24 27.81, 483.05 30.77 C480.87 33.72, 474.69 37.73, 465.51 40.17 C456.33 42.62, 443.17 43.79, 427.97 45.45 C412.76 47.11, 394 48.32, 374.27 50.14 C354.54 51.96, 332.51 55.12, 309.56 56.37 C286.61 57.63, 260.36 57.77, 236.57 57.68 C212.79 57.59, 189.29 57.01, 166.84 55.82 C144.38 54.63, 121.28 52.45, 101.82 50.56 C82.37 48.66, 64.65 46.44, 50.11 44.44 C35.58 42.44, 22.82 40.75, 14.61 38.55 C6.4 36.34, 2.04 33.85, 0.83 31.22 C-0.37 28.6, 1.76 25.62, 7.37 22.81 C12.97 19.99, 22.23 17.09, 34.47 14.34 C46.71 11.59, 63.15 8.14, 80.83 6.3 C98.5 4.45, 119.14 4.2, 140.5 3.28 C161.86 2.36, 185.67 1.51, 209 0.78 C232.33 0.05, 268.37 -1.32, 280.49 -1.11 C292.6 -0.89, 282.04 1.48, 281.7 2.07" stroke="#1e1e1e" stroke-width="2" fill="none"></path></g></g><g clip-path="url(#oDAa6coCiXWXiScyddGOv)"><g transform="translate(1278.9040993062988 749.4505993352072) rotate(0 13.04998779296875 12.5)"><text x="13.04998779296875" y="17.52" font-family="Virgil, Segoe UI Emoji" font-size="20px" fill="#1e1e1e" text-anchor="middle" style="white-space: pre;" direction="ltr" dominant-baseline="alphabetic">jre</text></g></g><g clip-path="url(#oDAa6coCiXWXiScyddGOv)"><g stroke-linecap="round" transform="translate(1046.0294737815857 687.791669863506) rotate(0 241.72500000000002 28.093438494085603)"><path d="M223.04 0.12 C245.27 -0.53, 270.94 0.45, 294.02 1.11 C317.11 1.77, 340.83 2.94, 361.57 4.08 C382.31 5.23, 402.1 6.14, 418.46 7.97 C434.82 9.81, 449.32 12.37, 459.71 15.12 C470.09 17.87, 477.1 21.51, 480.76 24.47 C484.42 27.42, 485.29 30.22, 481.68 32.84 C478.07 35.46, 469.37 37.86, 459.1 40.18 C448.82 42.51, 435.96 44.72, 420.04 46.79 C404.12 48.86, 384.19 50.99, 363.57 52.59 C342.95 54.19, 319.28 55.64, 296.31 56.38 C273.34 57.12, 249.54 57.31, 225.76 57.04 C201.98 56.77, 176.09 55.89, 153.64 54.75 C131.19 53.61, 109.69 52.04, 91.07 50.2 C72.44 48.37, 55.08 46.02, 41.89 43.74 C28.71 41.46, 18.85 39.21, 11.95 36.54 C5.06 33.88, 0.87 30.57, 0.53 27.75 C0.19 24.92, 3.14 22.13, 9.9 19.6 C16.65 17.06, 27.77 14.74, 41.06 12.53 C54.35 10.31, 71.16 8.21, 89.63 6.32 C108.1 4.44, 125.24 2.45, 151.9 1.24 C178.56 0.02, 229.25 -0.88, 249.57 -0.97 C269.89 -1.05, 274.14 0.01, 273.79 0.71 M353.59 3.55 C375.05 4.38, 392.59 5.08, 409.56 7 C426.52 8.91, 443.65 12.58, 455.39 15.05 C467.13 17.52, 475.57 19.18, 479.97 21.83 C484.36 24.48, 484.29 27.88, 481.76 30.95 C479.23 34.02, 474.17 37.47, 464.79 40.24 C455.41 43.02, 440.9 45.85, 425.47 47.59 C410.04 49.33, 392.14 49.31, 372.22 50.68 C352.3 52.04, 328.58 54.81, 305.95 55.79 C283.31 56.76, 259.83 56.73, 236.42 56.55 C213.02 56.36, 188.19 55.65, 165.53 54.69 C142.87 53.72, 119.89 52.57, 100.47 50.76 C81.06 48.96, 63.31 46.1, 49.02 43.85 C34.73 41.6, 22.68 39.71, 14.75 37.26 C6.82 34.82, 2.47 31.84, 1.45 29.19 C0.43 26.55, 2.84 24.12, 8.63 21.39 C14.41 18.65, 23.74 14.99, 36.16 12.8 C48.58 10.61, 65.19 9.88, 83.15 8.26 C101.11 6.63, 122.25 4.32, 143.92 3.08 C165.59 1.83, 189.63 1.17, 213.18 0.79 C236.74 0.41, 261.88 0.24, 285.26 0.78 C308.64 1.32, 342.37 3.75, 353.45 4.01 C364.53 4.26, 353.76 1.96, 351.74 2.31" stroke="none" stroke-width="0" fill="#ffc9c9"></path><path d="M141.06 3.33 C160.11 1.62, 188.12 -0.13, 211.96 -0.66 C235.8 -1.2, 260.73 -0.44, 284.1 0.11 C307.47 0.66, 331.16 1.39, 352.17 2.63 C373.19 3.87, 393.24 5.59, 410.19 7.52 C427.14 9.45, 442.42 11.77, 453.87 14.21 C465.32 16.66, 474.03 19.52, 478.89 22.2 C483.75 24.88, 485.48 27.35, 483.03 30.28 C480.59 33.2, 473.67 37.18, 464.22 39.76 C454.76 42.35, 441.55 43.66, 426.33 45.79 C411.1 47.92, 392.84 51.09, 372.89 52.53 C352.93 53.98, 329.29 53.96, 306.58 54.47 C283.87 54.97, 260.37 55.55, 236.63 55.58 C212.88 55.6, 186.68 55.49, 164.09 54.6 C141.51 53.7, 120.11 51.94, 101.13 50.2 C82.15 48.46, 64.49 46.1, 50.22 44.15 C35.94 42.21, 23.84 41.08, 15.49 38.51 C7.14 35.94, 1.39 31.68, 0.12 28.72 C-1.15 25.77, 2.1 23.18, 7.88 20.78 C13.66 18.39, 22.61 16.5, 34.82 14.35 C47.04 12.19, 62.26 10.03, 81.16 7.86 C100.05 5.69, 135.35 2.07, 148.2 1.31 C161.05 0.55, 156.72 2.8, 158.26 3.29 M238.59 0.47 C261.37 -0.15, 288.82 0.63, 311.71 1.42 C334.6 2.2, 356.17 3.93, 375.93 5.17 C395.69 6.41, 415.41 6.62, 430.26 8.87 C445.11 11.12, 456.4 15.9, 465.06 18.68 C473.71 21.45, 479.85 22.82, 482.22 25.51 C484.58 28.21, 484.42 32.02, 479.26 34.86 C474.1 37.69, 463.21 40.09, 451.25 42.52 C439.29 44.95, 424.5 47.78, 407.5 49.44 C390.49 51.09, 370.49 51.34, 349.21 52.43 C327.94 53.52, 303.15 55.23, 279.87 56 C256.59 56.78, 233.16 57.45, 209.55 57.08 C185.93 56.7, 159.64 55.26, 138.18 53.74 C116.71 52.22, 98.36 49.88, 80.75 47.97 C63.14 46.07, 44.92 44.72, 32.54 42.33 C20.15 39.94, 11.63 36.08, 6.42 33.64 C1.22 31.19, -0.24 30.31, 1.31 27.66 C2.85 25.01, 7.17 20.44, 15.67 17.74 C24.18 15.05, 37.89 13.38, 52.34 11.49 C66.78 9.6, 83.06 8.06, 102.33 6.39 C121.6 4.73, 145.35 2.55, 167.97 1.51 C190.58 0.47, 226.07 0.4, 238.03 0.13 C250 -0.14, 239.38 -0.52, 239.78 -0.13" stroke="#1e1e1e" stroke-width="2" fill="none"></path></g></g><g clip-path="url(#oDAa6coCiXWXiScyddGOv)"><g transform="translate(1251.5191276876465 703.5200474915764) rotate(0 36.309959411621094 12.5)"><text x="36.309959411621094" y="17.52" font-family="Virgil, Segoe UI Emoji" font-size="20px" fill="#1e1e1e" text-anchor="middle" style="white-space: pre;" direction="ltr" dominant-baseline="alphabetic">jar/war</text></g></g><g clip-path="url(#oDAa6coCiXWXiScyddGOv)"><g stroke-linecap="round" transform="translate(1046.8544737815857 639.4498048022087) rotate(0 241.72500000000002 28.093438494085603)"><path d="M270.32 1.07 C293.18 0.89, 316.69 2.06, 338.43 2.89 C360.17 3.73, 382.73 4.45, 400.77 6.1 C418.8 7.75, 434.2 10.32, 446.64 12.8 C459.07 15.28, 469.39 18.16, 475.36 21.01 C481.33 23.86, 483.4 27.22, 482.44 29.9 C481.49 32.58, 477.57 34.43, 469.62 37.08 C461.67 39.73, 448.76 43.6, 434.73 45.78 C420.69 47.96, 404.42 48.71, 385.4 50.17 C366.38 51.63, 343.17 53.48, 320.63 54.56 C298.09 55.64, 273.97 56.62, 250.16 56.66 C226.36 56.7, 200.72 55.72, 177.81 54.79 C154.91 53.86, 132.59 52.44, 112.72 51.08 C92.84 49.72, 74.2 48.7, 58.57 46.64 C42.95 44.58, 28.6 41.19, 18.95 38.74 C9.29 36.3, 2.93 34.54, 0.64 31.95 C-1.64 29.37, 0.55 26.05, 5.22 23.26 C9.89 20.46, 17.66 17.57, 28.65 15.19 C39.65 12.81, 54.41 10.9, 71.18 8.96 C87.96 7.03, 108.18 4.91, 129.31 3.58 C150.43 2.25, 171.77 1.33, 197.92 0.98 C224.08 0.62, 269.17 1.53, 286.24 1.44 C303.32 1.34, 301.24 0.03, 300.38 0.41 M250.6 0.9 C273.32 0.63, 298.15 2.47, 320.62 3.03 C343.09 3.58, 365.89 2.68, 385.4 4.23 C404.92 5.79, 423.43 9.74, 437.71 12.33 C452 14.92, 463.7 17.26, 471.11 19.77 C478.51 22.29, 481.43 24.83, 482.13 27.41 C482.84 30, 481.17 32.8, 475.36 35.3 C469.55 37.81, 459.83 40.06, 447.26 42.45 C434.7 44.84, 418.38 47.85, 399.97 49.63 C381.55 51.41, 358.5 51.98, 336.77 53.13 C315.03 54.29, 292.99 56.16, 269.55 56.57 C246.11 56.99, 219.65 56.25, 196.12 55.61 C172.58 54.96, 149.46 53.99, 128.37 52.68 C107.28 51.37, 86.37 49.7, 69.56 47.76 C52.76 45.81, 38.46 43.55, 27.53 41 C16.61 38.45, 8.25 35.17, 4.02 32.46 C-0.22 29.74, -0.36 27.36, 2.11 24.72 C4.58 22.08, 9.37 19.26, 18.85 16.6 C28.32 13.94, 43.3 10.97, 58.96 8.76 C74.63 6.56, 92.74 4.7, 112.83 3.38 C132.93 2.05, 156.5 1.49, 179.55 0.8 C202.6 0.11, 239.41 -0.54, 251.13 -0.77 C262.85 -1, 250.03 -1.32, 249.85 -0.58" stroke="none" stroke-width="0" fill="#ffc9c9"></path><path d="M288.33 1.03 C311.08 1.01, 335.46 2.54, 356.38 3.7 C377.31 4.85, 397.15 5.96, 413.88 7.96 C430.61 9.95, 445.93 13.19, 456.74 15.68 C467.55 18.17, 474.59 20.33, 478.76 22.89 C482.92 25.46, 484.61 28.17, 481.73 31.08 C478.85 33.99, 471.15 37.74, 461.47 40.36 C451.79 42.99, 438.98 44.93, 423.63 46.82 C408.28 48.7, 389.5 50.38, 369.36 51.68 C349.22 52.99, 325.95 53.75, 302.81 54.63 C279.67 55.51, 254.21 56.92, 230.52 56.96 C206.84 57, 183.04 55.94, 160.7 54.88 C138.35 53.82, 115.73 52.48, 96.46 50.6 C77.2 48.73, 58.96 45.76, 45.12 43.63 C31.29 41.49, 21.12 40.32, 13.45 37.8 C5.79 35.29, -0.01 31.53, -0.86 28.54 C-1.72 25.55, 1.96 22.36, 8.31 19.88 C14.67 17.4, 24.26 15.88, 37.26 13.67 C50.27 11.47, 67.89 8.67, 86.33 6.65 C104.77 4.64, 126.19 2.63, 147.93 1.59 C169.66 0.56, 191.58 0.41, 216.75 0.43 C241.91 0.46, 283.63 1.34, 298.91 1.72 C314.19 2.09, 309.29 2.51, 308.45 2.69 M172.37 0.88 C192.8 -0.47, 219.67 -0.47, 243.16 -0.65 C266.66 -0.83, 290.87 -0.98, 313.37 -0.21 C335.86 0.57, 358.66 2.3, 378.15 3.98 C397.64 5.67, 415.24 7.66, 430.3 9.93 C445.37 12.2, 459.97 14.97, 468.52 17.62 C477.06 20.26, 480.09 22.94, 481.57 25.78 C483.05 28.63, 482.83 31.83, 477.42 34.69 C472 37.54, 460.91 40.33, 449.06 42.89 C437.22 45.45, 423.78 48.25, 406.34 50.05 C388.89 51.84, 366.26 52.86, 344.42 53.68 C322.58 54.5, 298.52 54.67, 275.3 54.96 C252.08 55.26, 228.44 55.64, 205.09 55.45 C181.74 55.26, 156.79 54.96, 135.22 53.84 C113.65 52.71, 93.01 50.8, 75.7 48.68 C58.38 46.55, 42.94 43.46, 31.32 41.07 C19.7 38.68, 11.02 37.07, 6 34.35 C0.97 31.63, -0.73 27.3, 1.17 24.75 C3.07 22.2, 8.74 21.47, 17.4 19.06 C26.05 16.65, 38.25 12.75, 53.09 10.29 C67.93 7.83, 86.71 5.77, 106.43 4.3 C126.15 2.84, 160.29 2.01, 171.42 1.49 C182.55 0.97, 172.05 0.73, 173.21 1.19" stroke="#1e1e1e" stroke-width="2" fill="none"></path></g></g><g clip-path="url(#oDAa6coCiXWXiScyddGOv)"><g transform="translate(1230.0741615621582 655.1781824302792) rotate(0 58.579925537109375 12.5)"><text x="58.579925537109375" y="17.52" font-family="Virgil, Segoe UI Emoji" font-size="20px" fill="#1e1e1e" text-anchor="middle" style="white-space: pre;" direction="ltr" dominant-baseline="alphabetic">image labels</text></g></g><g clip-path="url(#oDAa6coCiXWXiScyddGOv)"><g transform="translate(1166.0294737815857 591.9431936740875) rotate(0 109.3598861694336 12.5)"><text x="0" y="17.52" font-family="Virgil, Segoe UI Emoji" font-size="20px" fill="#1e1e1e" text-anchor="start" style="white-space: pre;" direction="ltr" dominant-baseline="alphabetic">Generated OCI Image</text></g></g><g transform="translate(991.0294737815857 527.4431936740875) rotate(0 38.114845275878906 8.75)"><text x="0" y="13.482" font-family="Assistant, Segoe UI Emoji" font-size="14px" fill="#999999" text-anchor="start" style="white-space: pre;" direction="ltr" dominant-baseline="alphabetic">Image Layers</text></g><rect transform="translate(991.0294737815857 547.9431936740875) rotate(0 290.5 203.5)" width="581px" height="407px" rx="8" ry="8" fill="none" stroke="#bbb" stroke-width="2"></rect><g stroke-linecap="round"><g transform="translate(231.0294737815857 150.94319367408752) rotate(0 32 54)"><path d="M0.16 0.34 C1.29 17.28, -3.74 82.82, 6.94 100.62 C17.63 118.42, 54.72 105.78, 64.28 107.15 M-1.22 -0.52 C-0.18 16.16, -4.32 80.73, 6.49 98.82 C17.3 116.91, 53.96 106.7, 63.66 108.02" stroke="#1e1e1e" stroke-width="2" fill="none"></path></g><g transform="translate(231.0294737815857 150.94319367408752) rotate(0 32 54)"><path d="M40.7 117.92 C48.57 116.36, 56.23 112.14, 63.66 108.02 M40.7 117.92 C45.85 114.75, 51.66 113.87, 63.66 108.02" stroke="#1e1e1e" stroke-width="2" fill="none"></path></g><g transform="translate(231.0294737815857 150.94319367408752) rotate(0 32 54)"><path d="M39.71 100.85 C47.74 104.64, 55.72 105.79, 63.66 108.02 M39.71 100.85 C45.13 101.59, 51.16 104.62, 63.66 108.02" stroke="#1e1e1e" stroke-width="2" fill="none"></path></g></g><mask></mask><g stroke-linecap="round"><g transform="translate(184.0294737815857 149.94319367408752) rotate(0 46.5 279.5)"><path d="M0.13 0.32 C-0.25 82.44, -19.32 400.27, -3.16 493.43 C13.01 586.59, 80.5 548.4, 97.09 559.28 M-1.26 -0.56 C-1.64 81.65, -19.93 401.12, -3.66 494.67 C12.61 588.22, 79.71 549.91, 96.38 560.75" stroke="#1e1e1e" stroke-width="2" fill="none"></path></g><g transform="translate(184.0294737815857 149.94319367408752) rotate(0 46.5 279.5)"><path d="M72.47 568.04 C78.31 567.79, 82.19 564.91, 96.38 560.75 M72.47 568.04 C79.46 565.65, 88.08 563.81, 96.38 560.75" stroke="#1e1e1e" stroke-width="2" fill="none"></path></g><g transform="translate(184.0294737815857 149.94319367408752) rotate(0 46.5 279.5)"><path d="M73.37 550.97 C79.11 554.54, 82.79 555.48, 96.38 560.75 M73.37 550.97 C79.99 554.1, 88.31 557.78, 96.38 560.75" stroke="#1e1e1e" stroke-width="2" fill="none"></path></g></g><mask></mask><g stroke-linecap="round"><g transform="translate(909.0294737815855 796.6532675583107) rotate(0 102.64001318194721 -4.59682092040606)"><path d="M-0.65 -0.36 C33.9 -1.7, 171.92 -6.98, 206.22 -8.42" stroke="#bbb" stroke-width="1.5" fill="none" stroke-dasharray="1.5 7"></path></g><g transform="translate(909.0294737815855 796.6532675583107) rotate(0 102.64001318194721 -4.59682092040606)"><path d="M183.08 1.06 C187.47 0.72, 194.31 -3.1, 206.22 -8.42" stroke="#bbb" stroke-width="1.5" fill="none" stroke-dasharray="1.5 5"></path></g><g transform="translate(909.0294737815855 796.6532675583107) rotate(0 102.64001318194721 -4.59682092040606)"><path d="M182.4 -16.03 C186.89 -12.71, 193.87 -12.86, 206.22 -8.42" stroke="#bbb" stroke-width="1.5" fill="none" stroke-dasharray="1.5 5"></path></g></g><mask></mask><g stroke-linecap="round"><g transform="translate(909.0294737815855 851.5122800396882) rotate(0 67.01190773876647 -43.30590580778528)"><path d="M-0.07 -0.83 C22.34 -15.29, 112.46 -72.89, 134.99 -87.1" stroke="#bbb" stroke-width="1.5" fill="none" stroke-dasharray="1.5 7"></path></g><g transform="translate(909.0294737815855 851.5122800396882) rotate(0 67.01190773876647 -43.30590580778528)"><path d="M119.75 -67.28 C123.69 -72.51, 129.52 -79.17, 134.99 -87.1" stroke="#bbb" stroke-width="1.5" fill="none" stroke-dasharray="1.5 5"></path></g><g transform="translate(909.0294737815855 851.5122800396882) rotate(0 67.01190773876647 -43.30590580778528)"><path d="M110.58 -81.71 C117.65 -81.95, 126.65 -83.62, 134.99 -87.1" stroke="#bbb" stroke-width="1.5" fill="none" stroke-dasharray="1.5 5"></path></g></g><mask></mask><g stroke-linecap="round"><g transform="translate(907.0294737815857 990.5633892576702) rotate(0 69.02489873390232 -136.9369507909704)"><path d="M-0.42 -0.69 C22.92 -46.42, 116.03 -228.17, 139.19 -273.83" stroke="#bbb" stroke-width="1.5" fill="none" stroke-dasharray="1.5 7"></path></g><g transform="translate(907.0294737815857 990.5633892576702) rotate(0 69.02489873390232 -136.9369507909704)"><path d="M136.13 -249.02 C135.58 -252.82, 137.5 -259.55, 139.19 -273.83" stroke="#bbb" stroke-width="1.5" fill="none" stroke-dasharray="1.5 5"></path></g><g transform="translate(907.0294737815857 990.5633892576702) rotate(0 69.02489873390232 -136.9369507909704)"><path d="M120.9 -256.79 C123.89 -258.75, 129.32 -263.68, 139.19 -273.83" stroke="#bbb" stroke-width="1.5" fill="none" stroke-dasharray="1.5 5"></path></g></g><mask></mask><g stroke-linecap="round"><g transform="translate(907.0294737815857 1131.5974609710147) rotate(0 68.39606263011251 -205.57485221918694)"><path d="M-1.02 -0.22 C21.89 -68.46, 114.46 -341.5, 137.31 -409.98" stroke="#bbb" stroke-width="1.5" fill="none" stroke-dasharray="1.5 7"></path></g><g transform="translate(907.0294737815857 1131.5974609710147) rotate(0 68.39606263011251 -205.57485221918694)"><path d="M137.91 -384.99 C137.49 -391.38, 139.63 -400.66, 137.31 -409.98" stroke="#bbb" stroke-width="1.5" fill="none" stroke-dasharray="1.5 5"></path></g><g transform="translate(907.0294737815857 1131.5974609710147) rotate(0 68.39606263011251 -205.57485221918694)"><path d="M121.71 -390.44 C125.95 -395.11, 132.79 -402.81, 137.31 -409.98" stroke="#bbb" stroke-width="1.5" fill="none" stroke-dasharray="1.5 5"></path></g></g><mask></mask><g stroke-linecap="round"><g transform="translate(911.0294737815857 1205.1957402735898) rotate(0 64.96005631404864 -266.928109171266)"><path d="M-1.17 0.68 C20.48 -88.26, 108.34 -444.69, 130.27 -533.71" stroke="#bbb" stroke-width="1.5" fill="none" stroke-dasharray="1.5 7"></path></g><g transform="translate(911.0294737815857 1205.1957402735898) rotate(0 64.96005631404864 -266.928109171266)"><path d="M132.95 -508.85 C133.22 -516.53, 131.44 -524.48, 130.27 -533.71" stroke="#bbb" stroke-width="1.5" fill="none" stroke-dasharray="1.5 5"></path></g><g transform="translate(911.0294737815857 1205.1957402735898) rotate(0 64.96005631404864 -266.928109171266)"><path d="M116.35 -512.94 C122.11 -519.1, 125.84 -525.7, 130.27 -533.71" stroke="#bbb" stroke-width="1.5" fill="none" stroke-dasharray="1.5 5"></path></g></g><mask></mask><g stroke-linecap="round"><g transform="translate(576.0340395860799 125.2970239588077) rotate(0.48209546353743316 51.18245827623957 -8.324367790705253)"><path d="M1.14 0.75 C7.19 0.5, 19.6 1.66, 36.53 -1.12 C53.46 -3.9, 91.88 -13.41, 102.73 -15.94 M0.29 0.1 C6.71 0.03, 21.95 3.49, 38.92 0.49 C55.9 -2.51, 91.72 -15.33, 102.15 -17.91" stroke="#1e1e1e" stroke-width="2" fill="none"></path></g><g transform="translate(576.0340395860799 125.2970239588077) rotate(0.48209546353743316 51.18245827623957 -8.324367790705253)"><path d="M82.13 -2.93 C89.76 -8.96, 95.17 -12.14, 102.15 -17.91 M82.13 -2.93 C89.46 -7.62, 96.22 -13.46, 102.15 -17.91" stroke="#1e1e1e" stroke-width="2" fill="none"></path></g><g transform="translate(576.0340395860799 125.2970239588077) rotate(0.48209546353743316 51.18245827623957 -8.324367790705253)"><path d="M77.19 -19.3 C86.46 -20.12, 93.46 -18.04, 102.15 -17.91 M77.19 -19.3 C86.19 -18.12, 94.72 -18.08, 102.15 -17.91" stroke="#1e1e1e" stroke-width="2" fill="none"></path></g></g><mask></mask><g stroke-linecap="round"><g transform="translate(527.111373253753 149.6861458305736) rotate(0.48209546353743316 34.10024394452279 6.4806463072835925)"><path d="M-1.15 0.19 C2.86 2.02, 11.68 8.48, 23.11 10.52 C34.54 12.56, 60.09 11.96, 67.43 12.44 M0.44 -0.76 C4.89 1.3, 13.65 9.52, 25.23 11.89 C36.81 14.27, 62.99 13.01, 69.93 13.49" stroke="#1e1e1e" stroke-width="2" fill="none"></path></g><g transform="translate(527.111373253753 149.6861458305736) rotate(0.48209546353743316 34.10024394452279 6.4806463072835925)"><path d="M49.18 20.8 C54.07 17.5, 57.77 16.52, 69.93 13.49 M49.18 20.8 C53.93 18.86, 60.52 17.22, 69.93 13.49" stroke="#1e1e1e" stroke-width="2" fill="none"></path></g><g transform="translate(527.111373253753 149.6861458305736) rotate(0.48209546353743316 34.10024394452279 6.4806463072835925)"><path d="M49.33 5.76 C54.12 5.75, 57.79 8.07, 69.93 13.49 M49.33 5.76 C53.91 7.68, 60.47 9.91, 69.93 13.49" stroke="#1e1e1e" stroke-width="2" fill="none"></path></g></g><mask></mask></svg>